<?xml version="1.0" encoding="UTF-8"?>
<svg width="256mm" height="256mm" version="1.1" viewBox="0 0 256 256" xmlns="http://www.w3.org/2000/svg">
<g>
<path d="m160.33 206.08c-8.303-1.8437-12.379-3.2934-18.609-6.6176-16.831-8.981-29.035-24.436-34.082-43.159-2.3691-8.7889-2.3716-24.329-6e-3 -33.137 3.4057-12.676 9.5575-23.109 18.929-32.103 6.5032-6.2411 10.477-8.9885 18.305-12.656 10.238-4.7959 15.582-5.9061 28.433-5.9061 13.089 0 18.424 1.1489 29.08 6.2626 14.546 6.9804 25.41 17.916 32.211 32.424 4.8571 10.361 5.9656 15.666 5.9656 28.546 0 9.1666-0.27531 12.17-1.5376 16.773-6.6094 24.104-25.223 42.591-49.145 48.81-8.6733 2.2548-21.351 2.582-29.545 0.76256zm23.424-24.955c7.7977-2.0304 13.245-5.2303 19.517-11.464 9.5024-9.4451 13.008-18.551 12.349-32.078-0.56509-11.597-4.2897-20.217-12.116-28.04-7.8261-7.8234-16.449-11.547-28.05-12.112-13.512-0.65793-22.607 2.8367-32.129 12.345-8.7293 8.7162-12.54 17.78-12.54 29.827 0 12.174 3.8275 21.316 12.58 30.046 6.1743 6.1585 10.895 8.9969 18.655 11.217 5.6549 1.6177 16.041 1.7418 21.734 0.25963z" fill="#2a7fff" stroke="#323232" stroke-width="10.008"/>
</g>
<g>
<g transform="matrix(6.6312 -3.1107 3.1107 6.6301 1.9584 -598.48)" fill="#f55" stroke="#323232" stroke-width="1.374">
<path d="m-39.021 89.839c-0.68963-0.70984-0.81292-2.1603-0.22228-2.7822 0.61492-0.64751 2.1265-0.59467 2.867 0.12136 2.7798 2.6877 4.926 4.965 7.389 7.4475 2.4016 2.4206 4.8828 4.8103 7.2047 7.2618 0.65498 0.69155 0.46025 2.0608-0.13439 2.6329-0.56706 0.54562-1.8659 0.6679-2.5104 0.028-2.5571-2.5393-4.8031-4.8412-7.2047-7.2618-2.463-2.4825-4.6631-4.6418-7.389-7.4475z"/>
<path d="m-21.852 89.837c0.69438-0.70507 0.81851-2.1458 0.22381-2.7635-0.61915-0.64316-2.1411-0.59066-2.8867 0.12054-2.7989 2.6697-4.9599 4.9316-7.4398 7.3974-2.4181 2.4043-4.9164 4.7779-7.2543 7.213-0.65949 0.6869-0.46342 2.0469 0.13531 2.6152 0.57096 0.54195 1.8788 0.6634 2.5276 0.0278 2.5747-2.5223 4.8362-4.8086 7.2543-7.213 2.4799-2.4658 4.6952-4.6106 7.4398-7.3974z"/>
</g>
<path d="m67.56 120.29 54.673 19.962" fill="#f55" stroke="#f55" stroke-width="17.548"/>
<path d="m-1587.7 287.1c-23.872-5.2987-35.592-9.4649-53.503-19.018-48.39-25.811-83.479-70.226-97.99-124.04-6.8114-25.258-6.8185-69.921-0.017-95.232 9.7917-36.429 27.479-66.413 54.424-92.262 18.697-17.936 30.123-25.832 52.629-36.371 29.434-13.783 44.801-16.974 81.749-16.974 37.631 0 52.97 3.3019 83.607 17.998 41.822 20.061 73.055 51.488 92.609 93.185 13.965 29.778 17.152 45.021 17.152 82.04 0 26.344-0.7916 34.975-4.4207 48.204-19.003 69.272-72.52 122.4-141.3 140.27-24.936 6.48-61.387 7.4204-84.944 2.1915zm67.346-71.719c22.419-5.8351 38.082-15.031 56.112-32.946 27.32-27.144 37.399-53.315 35.504-92.19-1.6247-33.328-12.333-58.101-34.834-80.585-22.5-22.484-47.293-33.184-80.646-34.808-38.847-1.8908-64.998 8.1525-92.374 35.477-25.097 25.05-36.053 51.098-36.053 85.719 0 34.988 11.004 61.261 36.168 86.35 17.752 17.699 31.324 25.856 53.636 32.237 16.258 4.6491 46.121 5.0057 62.487 0.7461z" fill="#2a7fff"/>
<g transform="matrix(21.051 -.20967 .21099 21.046 -393.78 -1704.1)" fill="#f55">
<path d="m-39.021 89.839c-0.68963-0.70984-0.81292-2.1603-0.22228-2.7822 0.61492-0.64751 2.1265-0.59467 2.867 0.12136 2.7798 2.6877 4.926 4.965 7.389 7.4475 2.4016 2.4206 4.8828 4.8103 7.2047 7.2618 0.65498 0.69155 0.46025 2.0608-0.13439 2.6329-0.56706 0.54562-1.8659 0.6679-2.5104 0.028-2.5571-2.5393-4.8031-4.8412-7.2047-7.2618-2.463-2.4825-4.6631-4.6418-7.389-7.4475z"/>
<path d="m-21.852 89.837c0.69438-0.70507 0.81851-2.1458 0.22381-2.7635-0.61915-0.64316-2.1411-0.59066-2.8867 0.12054-2.7989 2.6697-4.9599 4.9316-7.4398 7.3974-2.4181 2.4043-4.9164 4.7779-7.2543 7.213-0.65949 0.6869-0.46342 2.0469 0.13531 2.6152 0.57096 0.54195 1.8788 0.6634 2.5276 0.0278 2.5747-2.5223 4.8362-4.8086 7.2543-7.213 2.4799-2.4658 4.6952-4.6106 7.4398-7.3974z"/>
</g>
<path d="m-1081 253.09 119.06 117.49" fill="#f55" stroke="#f55" stroke-width="50.432"/>
</g>
</svg>
