<?xml version="1.0" encoding="UTF-8"?>
<svg width="256mm" height="256mm" version="1.1" viewBox="0 0 256 256" xmlns="http://www.w3.org/2000/svg">
<g>
<path d="m487.35 203.96c-8.303-1.8437-12.379-3.2934-18.609-6.6176-16.831-8.981-29.035-24.436-34.082-43.159-2.3691-8.7889-2.3716-24.329-6e-3 -33.137 3.4057-12.676 9.5575-23.109 18.929-32.103 6.5032-6.2411 10.477-8.9885 18.305-12.656 10.238-4.7959 15.582-5.9061 28.433-5.9061 13.089 0 18.424 1.1489 29.08 6.2626 14.546 6.9804 25.41 17.916 32.211 32.424 4.8571 10.361 5.9656 15.666 5.9656 28.546 0 9.1666-0.27531 12.17-1.5376 16.773-6.6094 24.104-25.223 42.591-49.145 48.81-8.6733 2.2548-21.351 2.582-29.545 0.76256zm23.424-24.955c7.7977-2.0304 13.245-5.2303 19.517-11.464 9.5024-9.4451 13.008-18.551 12.349-32.078-0.56509-11.597-4.2897-20.217-12.116-28.04-7.8261-7.8234-16.449-11.547-28.05-12.112-13.512-0.65793-22.607 2.8367-32.129 12.345-8.7293 8.7162-12.54 17.78-12.54 29.827 0 12.174 3.8275 21.316 12.58 30.046 6.1743 6.1585 10.895 8.9969 18.655 11.217 5.6549 1.6177 16.041 1.7418 21.734 0.25963z" fill="#2a7fff" stroke="#323232" stroke-width="10.008"/>
</g>
<g>
<g transform="matrix(12.866 -.23566 .23643 12.864 497.77 -1110.9)" fill="#f55" stroke="#323232" stroke-width="1.374">
<path d="m-39.021 89.839c-0.68963-0.70984-0.81292-2.1603-0.22228-2.7822 0.61492-0.64751 2.1265-0.59467 2.867 0.12136 2.7798 2.6877 4.926 4.965 7.389 7.4475 2.4016 2.4206 4.8828 4.8103 7.2047 7.2618 0.65498 0.69155 0.46025 2.0608-0.13439 2.6329-0.56706 0.54562-1.8659 0.6679-2.5104 0.028-2.5571-2.5393-4.8031-4.8412-7.2047-7.2618-2.463-2.4825-4.6631-4.6418-7.389-7.4475z"/>
<path d="m-21.852 89.837c0.69438-0.70507 0.81851-2.1458 0.22381-2.7635-0.61915-0.64316-2.1411-0.59066-2.8867 0.12054-2.7989 2.6697-4.9599 4.9316-7.4398 7.3974-2.4181 2.4043-4.9164 4.7779-7.2543 7.213-0.65949 0.6869-0.46342 2.0469 0.13531 2.6152 0.57096 0.54195 1.8788 0.6634 2.5276 0.0278 2.5747-2.5223 4.8362-4.8086 7.2543-7.213 2.4799-2.4658 4.6952-4.6106 7.4398-7.3974z"/>
</g>
<path d="m87.622 89.12 73.38 71.21" fill="#f55" stroke="#f55" stroke-width="30.829"/>
<path d="m249.57-190.73c-15.78-3.5027-23.528-6.2567-35.368-12.572-31.988-17.062-55.184-46.423-64.776-81.994-4.5026-16.697-4.5073-46.221-0.0112-62.952 6.4727-24.081 18.165-43.902 35.977-60.989 12.36-11.857 19.913-17.076 34.79-24.043 19.457-9.1112 29.615-11.22 54.039-11.22 24.876 0 35.015 2.1827 55.268 11.898 27.646 13.261 48.292 34.036 61.219 61.599 9.2313 19.684 11.338 29.761 11.338 54.232 0 17.414-0.52329 23.12-2.9223 31.865-12.562 45.792-47.939 80.914-93.403 92.728-16.484 4.2836-40.58 4.9052-56.152 1.4487zm44.518-47.409c14.82-3.8573 25.174-9.9364 37.093-21.779 18.06-17.944 24.722-35.244 23.47-60.942-1.074-22.031-8.1529-38.408-23.027-53.27-14.874-14.863-31.263-21.936-53.31-23.01-25.68-1.2499-42.966 5.3892-61.064 23.452-16.59 16.559-23.833 33.778-23.833 56.664 0 23.129 7.2744 40.496 23.909 57.081 11.735 11.7 20.706 17.092 35.456 21.31 10.747 3.0733 30.488 3.309 41.307 0.4932z" fill="#2a7fff"/>
<g transform="matrix(13.915 -.1386 .13947 13.912 217.31 -1475)" fill="#f55">
<path d="m-39.021 89.839c-0.68963-0.70984-0.81292-2.1603-0.22228-2.7822 0.61492-0.64751 2.1265-0.59467 2.867 0.12136 2.7798 2.6877 4.926 4.965 7.389 7.4475 2.4016 2.4206 4.8828 4.8103 7.2047 7.2618 0.65498 0.69155 0.46025 2.0608-0.13439 2.6329-0.56706 0.54562-1.8659 0.6679-2.5104 0.028-2.5571-2.5393-4.8031-4.8412-7.2047-7.2618-2.463-2.4825-4.6631-4.6418-7.389-7.4475z"/>
<path d="m-21.852 89.837c0.69438-0.70507 0.81851-2.1458 0.22381-2.7635-0.61915-0.64316-2.1411-0.59066-2.8867 0.12054-2.7989 2.6697-4.9599 4.9316-7.4398 7.3974-2.4181 2.4043-4.9164 4.7779-7.2543 7.213-0.65949 0.6869-0.46342 2.0469 0.13531 2.6152 0.57096 0.54195 1.8788 0.6634 2.5276 0.0278 2.5747-2.5223 4.8362-4.8086 7.2543-7.213 2.4799-2.4658 4.6952-4.6106 7.4398-7.3974z"/>
</g>
<path d="m-236.95-181.26 78.705 77.664" fill="#f55" stroke="#f55" stroke-width="33.338"/>
</g>
</svg>
