<?xml version="1.0" encoding="UTF-8"?>
<svg width="1920mm" height="1080mm" version="1.1" viewBox="0 0 1920 1080" xmlns="http://www.w3.org/2000/svg">
<g>
<rect transform="scale(-1)" x="-1920" y="-1080" width="1920" height="1080" fill="#4c2fc6" fill-rule="evenodd" stroke-width="2.1703"/>
</g>
<g stroke="#865fff">
<g transform="matrix(-2.9 1.8831 1.8831 2.9 157.8 500.4)" fill="#8062ff" stroke-width=".047721px">
<path d="m-39.023 89.815c-0.68991-0.70514-0.81328-2.146-0.22244-2.7638 0.61513-0.64319 2.1273-0.59065 2.8681 0.12063 2.7809 2.67 4.928 4.9322 7.3919 7.3982 2.4025 2.4046 4.8848 4.7785 7.2076 7.2138 0.65525 0.68697 0.46048 2.0471-0.13437 2.6154-0.56726 0.54198-1.8666 0.66341-2.5113 0.0277-2.5581-2.5225-4.8051-4.8092-7.2076-7.2137-2.464-2.4661-4.6649-4.6111-7.3919-7.3982z"/>
<path d="m-21.968 89.815c0.68991-0.70514 0.81328-2.146 0.22244-2.7638-0.61513-0.64319-2.1273-0.59065-2.8681 0.12063-2.7809 2.67-4.928 4.9322-7.3919 7.3982-2.4025 2.4046-4.8848 4.7785-7.2076 7.2138-0.65525 0.68697-0.46048 2.0471 0.13436 2.6154 0.56726 0.54198 1.8666 0.66341 2.5113 0.0277 2.5581-2.5225 4.8051-4.8092 7.2076-7.2137 2.464-2.4661 4.6649-4.6111 7.3919-7.3982z"/>
</g>
<g transform="matrix(-1.1353 5.412 5.412 1.1353 431.66 664.7)" fill="#8062ff" stroke-width=".047721px">
<path d="m-39.023 89.815c-0.68991-0.70514-0.81328-2.146-0.22244-2.7638 0.61513-0.64319 2.1273-0.59065 2.8681 0.12063 2.7809 2.67 4.928 4.9322 7.3919 7.3982 2.4025 2.4046 4.8848 4.7785 7.2076 7.2138 0.65525 0.68697 0.46048 2.0471-0.13437 2.6154-0.56726 0.54198-1.8666 0.66341-2.5113 0.0277-2.5581-2.5225-4.8051-4.8092-7.2076-7.2137-2.464-2.4661-4.6649-4.6111-7.3919-7.3982z"/>
<path d="m-21.968 89.815c0.68991-0.70514 0.81328-2.146 0.22244-2.7638-0.61513-0.64319-2.1273-0.59065-2.8681 0.12063-2.7809 2.67-4.928 4.9322-7.3919 7.3982-2.4025 2.4046-4.8848 4.7785-7.2076 7.2138-0.65525 0.68697-0.46048 2.0471 0.13436 2.6154 0.56726 0.54198 1.8666 0.66341 2.5113 0.0277 2.5581-2.5225 4.8051-4.8092 7.2076-7.2137 2.464-2.4661 4.6649-4.6111 7.3919-7.3982z"/>
</g>
<g transform="matrix(-2.9 1.8831 1.8831 2.9 -155.18 792.38)" fill="#8062ff" stroke-width=".047721px">
<path d="m-39.023 89.815c-0.68991-0.70514-0.81328-2.146-0.22244-2.7638 0.61513-0.64319 2.1273-0.59065 2.8681 0.12063 2.7809 2.67 4.928 4.9322 7.3919 7.3982 2.4025 2.4046 4.8848 4.7785 7.2076 7.2138 0.65525 0.68697 0.46048 2.0471-0.13437 2.6154-0.56726 0.54198-1.8666 0.66341-2.5113 0.0277-2.5581-2.5225-4.8051-4.8092-7.2076-7.2137-2.464-2.4661-4.6649-4.6111-7.3919-7.3982z"/>
<path d="m-21.968 89.815c0.68991-0.70514 0.81328-2.146 0.22244-2.7638-0.61513-0.64319-2.1273-0.59065-2.8681 0.12063-2.7809 2.67-4.928 4.9322-7.3919 7.3982-2.4025 2.4046-4.8848 4.7785-7.2076 7.2138-0.65525 0.68697-0.46048 2.0471 0.13436 2.6154 0.56726 0.54198 1.8666 0.66341 2.5113 0.0277 2.5581-2.5225 4.8051-4.8092 7.2076-7.2137 2.464-2.4661 4.6649-4.6111 7.3919-7.3982z"/>
</g>
<g transform="matrix(-3.4955 4.0797 4.0797 3.4955 333.27 80.694)" fill="#8062ff" stroke-width=".047721px">
<path d="m-39.023 89.815c-0.68991-0.70514-0.81328-2.146-0.22244-2.7638 0.61513-0.64319 2.1273-0.59065 2.8681 0.12063 2.7809 2.67 4.928 4.9322 7.3919 7.3982 2.4025 2.4046 4.8848 4.7785 7.2076 7.2138 0.65525 0.68697 0.46048 2.0471-0.13437 2.6154-0.56726 0.54198-1.8666 0.66341-2.5113 0.0277-2.5581-2.5225-4.8051-4.8092-7.2076-7.2137-2.464-2.4661-4.6649-4.6111-7.3919-7.3982z"/>
<path d="m-21.968 89.815c0.68991-0.70514 0.81328-2.146 0.22244-2.7638-0.61513-0.64319-2.1273-0.59065-2.8681 0.12063-2.7809 2.67-4.928 4.9322-7.3919 7.3982-2.4025 2.4046-4.8848 4.7785-7.2076 7.2138-0.65525 0.68697-0.46048 2.0471 0.13436 2.6154 0.56726 0.54198 1.8666 0.66341 2.5113 0.0277 2.5581-2.5225 4.8051-4.8092 7.2076-7.2137 2.464-2.4661 4.6649-4.6111 7.3919-7.3982z"/>
</g>
<g transform="matrix(-6.1879 0 0 6.1879 513.64 -442.66)" fill="#8062ff" stroke-width=".024152px">
<path d="m-32.425 99.896c-0.34916-0.35688-0.41161-1.0861-0.11258-1.3987 0.31132-0.32552 1.0766-0.29893 1.4516 0.06105 1.4074 1.3513 2.4941 2.4962 3.7411 3.7443 1.2159 1.217 2.4722 2.4184 3.6478 3.6509 0.33162 0.34768 0.23305 1.036-0.068 1.3237-0.28709 0.2743-0.94469 0.33576-1.271 0.014-1.2947-1.2767-2.4319-2.4339-3.6478-3.6509-1.247-1.2481-2.3609-2.3337-3.7411-3.7443z"/>
<path d="m-23.793 99.896c0.34917-0.35688 0.41161-1.0861 0.11258-1.3987-0.31132-0.32552-1.0766-0.29893-1.4516 0.06105-1.4074 1.3513-2.4941 2.4962-3.7411 3.7443-1.2159 1.217-2.4722 2.4184-3.6478 3.6509-0.33162 0.34768-0.23305 1.036 0.068 1.3237 0.28709 0.2743 0.9447 0.33576 1.271 0.014 1.2947-1.2767 2.4319-2.4339 3.6478-3.6509 1.247-1.2481 2.3609-2.3337 3.7411-3.7443z"/>
</g>
<g transform="matrix(-6.1879 0 0 6.1879 173.66 -567.09)" fill="#8062ff" stroke-width=".024152px">
<path d="m-32.425 99.896c-0.34916-0.35688-0.41161-1.0861-0.11258-1.3987 0.31132-0.32552 1.0766-0.29893 1.4516 0.06105 1.4074 1.3513 2.4941 2.4962 3.7411 3.7443 1.2159 1.217 2.4722 2.4184 3.6478 3.6509 0.33162 0.34768 0.23305 1.036-0.068 1.3237-0.28709 0.2743-0.94469 0.33576-1.271 0.014-1.2947-1.2767-2.4319-2.4339-3.6478-3.6509-1.247-1.2481-2.3609-2.3337-3.7411-3.7443z"/>
<path d="m-23.793 99.896c0.34917-0.35688 0.41161-1.0861 0.11258-1.3987-0.31132-0.32552-1.0766-0.29893-1.4516 0.06105-1.4074 1.3513-2.4941 2.4962-3.7411 3.7443-1.2159 1.217-2.4722 2.4184-3.6478 3.6509-0.33162 0.34768-0.23305 1.036 0.068 1.3237 0.28709 0.2743 0.9447 0.33576 1.271 0.014 1.2947-1.2767 2.4319-2.4339 3.6478-3.6509 1.247-1.2481 2.3609-2.3337 3.7411-3.7443z"/>
</g>
<g transform="matrix(-2.2113 2.973 2.973 2.2113 89.127 371.31)" fill="#8062ff" stroke-width=".047721px">
<path d="m-39.023 89.815c-0.68991-0.70514-0.81328-2.146-0.22244-2.7638 0.61513-0.64319 2.1273-0.59065 2.8681 0.12063 2.7809 2.67 4.928 4.9322 7.3919 7.3982 2.4025 2.4046 4.8848 4.7785 7.2076 7.2138 0.65525 0.68697 0.46048 2.0471-0.13437 2.6154-0.56726 0.54198-1.8666 0.66341-2.5113 0.0277-2.5581-2.5225-4.8051-4.8092-7.2076-7.2137-2.464-2.4661-4.6649-4.6111-7.3919-7.3982z"/>
<path d="m-21.968 89.815c0.68991-0.70514 0.81328-2.146 0.22244-2.7638-0.61513-0.64319-2.1273-0.59065-2.8681 0.12063-2.7809 2.67-4.928 4.9322-7.3919 7.3982-2.4025 2.4046-4.8848 4.7785-7.2076 7.2138-0.65525 0.68697-0.46048 2.0471 0.13436 2.6154 0.56726 0.54198 1.8666 0.66341 2.5113 0.0277 2.5581-2.5225 4.8051-4.8092 7.2076-7.2137 2.464-2.4661 4.6649-4.6111 7.3919-7.3982z"/>
</g>
<g transform="matrix(1.4107 2.6549 2.6549 -1.4107 821.23 669.36)" fill="#8062ff" stroke-width=".047721px">
<path d="m-44.18 19.623c-0.68991-0.70514-0.81328-2.146-0.22244-2.7638 0.61513-0.64319 2.1273-0.59065 2.8681 0.12063 2.7809 2.67 4.928 4.9322 7.3919 7.3982 2.4025 2.4046 4.8848 4.7785 7.2076 7.2138 0.65525 0.68697 0.46048 2.0471-0.13437 2.6154-0.56726 0.54198-1.8666 0.66341-2.5113 0.0277-2.5581-2.5225-4.8051-4.8092-7.2076-7.2137-2.464-2.4661-4.6649-4.6111-7.3919-7.3982z"/>
<path d="m-27.125 19.623c0.68991-0.70514 0.81328-2.146 0.22244-2.7638-0.61513-0.64319-2.1273-0.59065-2.8681 0.12063-2.7809 2.67-4.928 4.9322-7.3919 7.3982-2.4025 2.4046-4.8848 4.7785-7.2076 7.2138-0.65525 0.68697-0.46048 2.0471 0.13436 2.6154 0.56726 0.54198 1.8666 0.66341 2.5113 0.0277 2.5581-2.5225 4.8051-4.8092 7.2076-7.2137 2.464-2.4661 4.6649-4.6111 7.3919-7.3982z"/>
</g>
<g transform="matrix(1.4107 2.6549 2.6549 -1.4107 845.79 237.53)" fill="#8062ff" stroke-width=".047721px">
<path d="m-44.18 19.623c-0.68991-0.70514-0.81328-2.146-0.22244-2.7638 0.61513-0.64319 2.1273-0.59065 2.8681 0.12063 2.7809 2.67 4.928 4.9322 7.3919 7.3982 2.4025 2.4046 4.8848 4.7785 7.2076 7.2138 0.65525 0.68697 0.46048 2.0471-0.13437 2.6154-0.56726 0.54198-1.8666 0.66341-2.5113 0.0277-2.5581-2.5225-4.8051-4.8092-7.2076-7.2137-2.464-2.4661-4.6649-4.6111-7.3919-7.3982z"/>
<path d="m-27.125 19.623c0.68991-0.70514 0.81328-2.146 0.22244-2.7638-0.61513-0.64319-2.1273-0.59065-2.8681 0.12063-2.7809 2.67-4.928 4.9322-7.3919 7.3982-2.4025 2.4046-4.8848 4.7785-7.2076 7.2138-0.65525 0.68697-0.46048 2.0471 0.13436 2.6154 0.56726 0.54198 1.8666 0.66341 2.5113 0.0277 2.5581-2.5225 4.8051-4.8092 7.2076-7.2137 2.464-2.4661 4.6649-4.6111 7.3919-7.3982z"/>
</g>
<g transform="matrix(1.6072 2.1166 2.1166 -1.6072 -62.595 804.92)" fill="#8062ff" stroke-width=".047721px">
<path d="m-39.023 89.815c-0.68991-0.70514-0.81328-2.146-0.22244-2.7638 0.61513-0.64319 2.1273-0.59065 2.8681 0.12063 2.7809 2.67 4.928 4.9322 7.3919 7.3982 2.4025 2.4046 4.8848 4.7785 7.2076 7.2138 0.65525 0.68697 0.46048 2.0471-0.13437 2.6154-0.56726 0.54198-1.8666 0.66341-2.5113 0.0277-2.5581-2.5225-4.8051-4.8092-7.2076-7.2137-2.464-2.4661-4.6649-4.6111-7.3919-7.3982z"/>
<path d="m-21.968 89.815c0.68991-0.70514 0.81328-2.146 0.22244-2.7638-0.61513-0.64319-2.1273-0.59065-2.8681 0.12063-2.7809 2.67-4.928 4.9322-7.3919 7.3982-2.4025 2.4046-4.8848 4.7785-7.2076 7.2138-0.65525 0.68697-0.46048 2.0471 0.13436 2.6154 0.56726 0.54198 1.8666 0.66341 2.5113 0.0277 2.5581-2.5225 4.8051-4.8092 7.2076-7.2137 2.464-2.4661 4.6649-4.6111 7.3919-7.3982z"/>
</g>
<ellipse transform="scale(-1,1)" cx="-571.08" cy="326.92" rx="24.531" ry="24.531" fill="none" stroke-width="11.39"/>
<g transform="matrix(-5.0579 3.0631 3.0631 5.0579 -230.84 -198.43)" fill="#8062ff" stroke-width=".047721px">
<path d="m-39.023 89.815c-0.68991-0.70514-0.81328-2.146-0.22244-2.7638 0.61513-0.64319 2.1273-0.59065 2.8681 0.12063 2.7809 2.67 4.928 4.9322 7.3919 7.3982 2.4025 2.4046 4.8848 4.7785 7.2076 7.2138 0.65525 0.68697 0.46048 2.0471-0.13437 2.6154-0.56726 0.54198-1.8666 0.66341-2.5113 0.0277-2.5581-2.5225-4.8051-4.8092-7.2076-7.2137-2.464-2.4661-4.6649-4.6111-7.3919-7.3982z"/>
<path d="m-21.968 89.815c0.68991-0.70514 0.81328-2.146 0.22244-2.7638-0.61513-0.64319-2.1273-0.59065-2.8681 0.12063-2.7809 2.67-4.928 4.9322-7.3919 7.3982-2.4025 2.4046-4.8848 4.7785-7.2076 7.2138-0.65525 0.68697-0.46048 2.0471 0.13436 2.6154 0.56726 0.54198 1.8666 0.66341 2.5113 0.0277 2.5581-2.5225 4.8051-4.8092 7.2076-7.2137 2.464-2.4661 4.6649-4.6111 7.3919-7.3982z"/>
</g>
<g transform="matrix(-2.6743 -.65446 -.65446 2.6743 72.702 34.483)" fill="#8062ff" stroke-width=".047721px">
<path d="m-39.023 89.815c-0.68991-0.70514-0.81328-2.146-0.22244-2.7638 0.61513-0.64319 2.1273-0.59065 2.8681 0.12063 2.7809 2.67 4.928 4.9322 7.3919 7.3982 2.4025 2.4046 4.8848 4.7785 7.2076 7.2138 0.65525 0.68697 0.46048 2.0471-0.13437 2.6154-0.56726 0.54198-1.8666 0.66341-2.5113 0.0277-2.5581-2.5225-4.8051-4.8092-7.2076-7.2137-2.464-2.4661-4.6649-4.6111-7.3919-7.3982z"/>
<path d="m-21.968 89.815c0.68991-0.70514 0.81328-2.146 0.22244-2.7638-0.61513-0.64319-2.1273-0.59065-2.8681 0.12063-2.7809 2.67-4.928 4.9322-7.3919 7.3982-2.4025 2.4046-4.8848 4.7785-7.2076 7.2138-0.65525 0.68697-0.46048 2.0471 0.13436 2.6154 0.56726 0.54198 1.8666 0.66341 2.5113 0.0277 2.5581-2.5225 4.8051-4.8092 7.2076-7.2137 2.464-2.4661 4.6649-4.6111 7.3919-7.3982z"/>
</g>
<g transform="matrix(-1.2955 3.7648 3.7648 1.2955 184.22 796.53)" fill="#8062ff" stroke-width=".047721px">
<path d="m-39.023 89.815c-0.68991-0.70514-0.81328-2.146-0.22244-2.7638 0.61513-0.64319 2.1273-0.59065 2.8681 0.12063 2.7809 2.67 4.928 4.9322 7.3919 7.3982 2.4025 2.4046 4.8848 4.7785 7.2076 7.2138 0.65525 0.68697 0.46048 2.0471-0.13437 2.6154-0.56726 0.54198-1.8666 0.66341-2.5113 0.0277-2.5581-2.5225-4.8051-4.8092-7.2076-7.2137-2.464-2.4661-4.6649-4.6111-7.3919-7.3982z"/>
<path d="m-21.968 89.815c0.68991-0.70514 0.81328-2.146 0.22244-2.7638-0.61513-0.64319-2.1273-0.59065-2.8681 0.12063-2.7809 2.67-4.928 4.9322-7.3919 7.3982-2.4025 2.4046-4.8848 4.7785-7.2076 7.2138-0.65525 0.68697-0.46048 2.0471 0.13436 2.6154 0.56726 0.54198 1.8666 0.66341 2.5113 0.0277 2.5581-2.5225 4.8051-4.8092 7.2076-7.2137 2.464-2.4661 4.6649-4.6111 7.3919-7.3982z"/>
</g>
<g transform="matrix(.59083 4.3544 4.4776 -.57456 184.28 785.07)" fill="#8062ff" stroke-width=".047721px">
<path d="m-39.023 89.815c-0.68991-0.70514-0.81328-2.146-0.22244-2.7638 0.61513-0.64319 2.1273-0.59065 2.8681 0.12063 2.7809 2.67 4.928 4.9322 7.3919 7.3982 2.4025 2.4046 4.8848 4.7785 7.2076 7.2138 0.65525 0.68697 0.46048 2.0471-0.13437 2.6154-0.56726 0.54198-1.8666 0.66341-2.5113 0.0277-2.5581-2.5225-4.8051-4.8092-7.2076-7.2137-2.464-2.4661-4.6649-4.6111-7.3919-7.3982z"/>
<path d="m-21.968 89.815c0.68991-0.70514 0.81328-2.146 0.22244-2.7638-0.61513-0.64319-2.1273-0.59065-2.8681 0.12063-2.7809 2.67-4.928 4.9322-7.3919 7.3982-2.4025 2.4046-4.8848 4.7785-7.2076 7.2138-0.65525 0.68697-0.46048 2.0471 0.13436 2.6154 0.56726 0.54198 1.8666 0.66341 2.5113 0.0277 2.5581-2.5225 4.8051-4.8092 7.2076-7.2137 2.464-2.4661 4.6649-4.6111 7.3919-7.3982z"/>
</g>
<g transform="matrix(-4.0839 1.611 1.611 4.0839 548.39 553.51)" fill="#8062ff" stroke-width=".047721px">
<path d="m-39.023 89.815c-0.68991-0.70514-0.81328-2.146-0.22244-2.7638 0.61513-0.64319 2.1273-0.59065 2.8681 0.12063 2.7809 2.67 4.928 4.9322 7.3919 7.3982 2.4025 2.4046 4.8848 4.7785 7.2076 7.2138 0.65525 0.68697 0.46048 2.0471-0.13437 2.6154-0.56726 0.54198-1.8666 0.66341-2.5113 0.0277-2.5581-2.5225-4.8051-4.8092-7.2076-7.2137-2.464-2.4661-4.6649-4.6111-7.3919-7.3982z"/>
<path d="m-21.968 89.815c0.68991-0.70514 0.81328-2.146 0.22244-2.7638-0.61513-0.64319-2.1273-0.59065-2.8681 0.12063-2.7809 2.67-4.928 4.9322-7.3919 7.3982-2.4025 2.4046-4.8848 4.7785-7.2076 7.2138-0.65525 0.68697-0.46048 2.0471 0.13436 2.6154 0.56726 0.54198 1.8666 0.66341 2.5113 0.0277 2.5581-2.5225 4.8051-4.8092 7.2076-7.2137 2.464-2.4661 4.6649-4.6111 7.3919-7.3982z"/>
</g>
<g transform="matrix(-2.2194 .94612 .94612 2.2194 286.47 784.9)" fill="#8062ff" stroke-width=".047721px">
<path d="m-46.88 88.729c-0.68991-0.70514-0.81328-2.146-0.22244-2.7638 0.61513-0.64319 2.1273-0.59065 2.8681 0.12063 2.7809 2.67 4.928 4.9322 7.3919 7.3982 2.4025 2.4046 4.8848 4.7785 7.2076 7.2138 0.65525 0.68697 0.46048 2.0471-0.13437 2.6154-0.56726 0.54198-1.8666 0.66341-2.5113 0.0277-2.5581-2.5225-4.8051-4.8092-7.2076-7.2137-2.464-2.4661-4.6649-4.6111-7.3919-7.3982z"/>
<path d="m-29.825 88.728c0.68991-0.70514 0.81328-2.146 0.22244-2.7638-0.61513-0.64319-2.1273-0.59065-2.8681 0.12063-2.7809 2.67-4.928 4.9322-7.3919 7.3982-2.4025 2.4046-4.8848 4.7785-7.2076 7.2138-0.65525 0.68697-0.46048 2.0471 0.13436 2.6154 0.56726 0.54198 1.8666 0.66341 2.5113 0.0277 2.5581-2.5225 4.8051-4.8092 7.2076-7.2138 2.464-2.4661 4.6649-4.6111 7.3919-7.3982z"/>
</g>
<g transform="matrix(-5.349 -.6605 -.6605 5.349 80.736 172.32)" fill="#8062ff" stroke-width=".047721px">
<path d="m-39.023 89.815c-0.68991-0.70514-0.81328-2.146-0.22244-2.7638 0.61513-0.64319 2.1273-0.59065 2.8681 0.12063 2.7809 2.67 4.928 4.9322 7.3919 7.3982 2.4025 2.4046 4.8848 4.7785 7.2076 7.2138 0.65525 0.68697 0.46048 2.0471-0.13437 2.6154-0.56726 0.54198-1.8666 0.66341-2.5113 0.0277-2.5581-2.5225-4.8051-4.8092-7.2076-7.2137-2.464-2.4661-4.6649-4.6111-7.3919-7.3982z"/>
<path d="m-21.968 89.815c0.68991-0.70514 0.81328-2.146 0.22244-2.7638-0.61513-0.64319-2.1273-0.59065-2.8681 0.12063-2.7809 2.67-4.928 4.9322-7.3919 7.3982-2.4025 2.4046-4.8848 4.7785-7.2076 7.2138-0.65525 0.68697-0.46048 2.0471 0.13436 2.6154 0.56726 0.54198 1.8666 0.66341 2.5113 0.0277 2.5581-2.5225 4.8051-4.8092 7.2076-7.2137 2.464-2.4661 4.6649-4.6111 7.3919-7.3982z"/>
</g>
<ellipse transform="scale(-1,1)" cx="-1051.5" cy="95.452" rx="24.531" ry="24.531" fill="none" stroke-width="11.39"/>
<ellipse transform="scale(-1,1)" cx="-692.22" cy="429.89" rx="36.517" ry="36.517" fill="none" stroke-width="16.956"/>
<ellipse transform="scale(-1,1)" cx="-768.72" cy="715.72" rx="36.517" ry="36.517" fill="none" stroke-width="16.956"/>
<ellipse transform="scale(-1,1)" cx="-349.6" cy="331.79" rx="21.908" ry="21.908" fill="none" stroke-width="10.172"/>
<ellipse transform="scale(-1,1)" cx="-950.4" cy="804.93" rx="21.908" ry="21.908" fill="none" stroke-width="10.172"/>
<ellipse transform="scale(-1,1)" cx="-448.01" cy="161.19" rx="33.853" ry="33.853" fill="none" stroke-width="15.719"/>
<ellipse transform="scale(-1,1)" cx="-200.23" cy="425.37" rx="32.522" ry="32.522" fill="none" stroke-width="15.101"/>
<ellipse transform="scale(-1,1)" cx="-118.19" cy="878.26" rx="24.531" ry="24.531" fill="none" stroke-width="11.39"/>
<ellipse transform="scale(-1,1)" cx="-331.5" cy="852" rx="24.531" ry="24.531" fill="none" stroke-width="11.39"/>
<ellipse transform="scale(-1,1)" cx="-974.45" cy="393.5" rx="24.531" ry="24.531" fill="none" stroke-width="11.39"/>
<ellipse transform="scale(-1,1)" cx="-87.689" cy="90.459" rx="24.531" ry="24.531" fill="none" stroke-width="11.39"/>
<ellipse transform="scale(-1,1)" cx="-305.25" cy="589.46" rx="24.531" ry="24.531" fill="none" stroke-width="11.39"/>
<ellipse transform="scale(-1,1)" cx="-598.22" cy="85.818" rx="24.531" ry="24.531" fill="none" stroke-width="11.39"/>
<ellipse transform="scale(-1,1)" cx="-952.09" cy="994.86" rx="25.864" ry="25.863" fill="none" stroke-width="12.011"/>
<ellipse transform="scale(-1,1)" cx="-259.31" cy="983.27" rx="32.522" ry="32.522" fill="none" stroke-width="15.101"/>
<ellipse transform="scale(-1,1)" cx="-653.85" cy="974.79" rx="40.512" ry="40.512" fill="none" stroke-width="18.811"/>
<g transform="matrix(2.9 -1.8831 -1.8831 -2.9 1785.9 581.1)" fill="#8062ff" stroke-width=".047721px">
<path d="m-39.023 89.815c-0.68991-0.70514-0.81328-2.146-0.22244-2.7638 0.61513-0.64319 2.1273-0.59065 2.8681 0.12063 2.7809 2.67 4.928 4.9322 7.3919 7.3982 2.4025 2.4046 4.8848 4.7785 7.2076 7.2138 0.65525 0.68697 0.46048 2.0471-0.13437 2.6154-0.56726 0.54198-1.8666 0.66341-2.5113 0.0277-2.5581-2.5225-4.8051-4.8092-7.2076-7.2137-2.464-2.4661-4.6649-4.6111-7.3919-7.3982z"/>
<path d="m-21.968 89.815c0.68991-0.70514 0.81328-2.146 0.22244-2.7638-0.61513-0.64319-2.1273-0.59065-2.8681 0.12063-2.7809 2.67-4.928 4.9322-7.3919 7.3982-2.4025 2.4046-4.8848 4.7785-7.2076 7.2138-0.65525 0.68697-0.46048 2.0471 0.13436 2.6154 0.56726 0.54198 1.8666 0.66341 2.5113 0.0277 2.5581-2.5225 4.8051-4.8092 7.2076-7.2137 2.464-2.4661 4.6649-4.6111 7.3919-7.3982z"/>
</g>
<g transform="matrix(2.9 -1.8831 -1.8831 -2.9 2098.9 289.11)" fill="#8062ff" stroke-width=".047721px">
<path d="m-39.023 89.815c-0.68991-0.70514-0.81328-2.146-0.22244-2.7638 0.61513-0.64319 2.1273-0.59065 2.8681 0.12063 2.7809 2.67 4.928 4.9322 7.3919 7.3982 2.4025 2.4046 4.8848 4.7785 7.2076 7.2138 0.65525 0.68697 0.46048 2.0471-0.13437 2.6154-0.56726 0.54198-1.8666 0.66341-2.5113 0.0277-2.5581-2.5225-4.8051-4.8092-7.2076-7.2137-2.464-2.4661-4.6649-4.6111-7.3919-7.3982z"/>
<path d="m-21.968 89.815c0.68991-0.70514 0.81328-2.146 0.22244-2.7638-0.61513-0.64319-2.1273-0.59065-2.8681 0.12063-2.7809 2.67-4.928 4.9322-7.3919 7.3982-2.4025 2.4046-4.8848 4.7785-7.2076 7.2138-0.65525 0.68697-0.46048 2.0471 0.13436 2.6154 0.56726 0.54198 1.8666 0.66341 2.5113 0.0277 2.5581-2.5225 4.8051-4.8092 7.2076-7.2137 2.464-2.4661 4.6649-4.6111 7.3919-7.3982z"/>
</g>
<g transform="matrix(3.4955 -4.0797 -4.0797 -3.4955 1610.4 1000.8)" fill="#8062ff" stroke-width=".047721px">
<path d="m-39.023 89.815c-0.68991-0.70514-0.81328-2.146-0.22244-2.7638 0.61513-0.64319 2.1273-0.59065 2.8681 0.12063 2.7809 2.67 4.928 4.9322 7.3919 7.3982 2.4025 2.4046 4.8848 4.7785 7.2076 7.2138 0.65525 0.68697 0.46048 2.0471-0.13437 2.6154-0.56726 0.54198-1.8666 0.66341-2.5113 0.0277-2.5581-2.5225-4.8051-4.8092-7.2076-7.2137-2.464-2.4661-4.6649-4.6111-7.3919-7.3982z"/>
<path d="m-21.968 89.815c0.68991-0.70514 0.81328-2.146 0.22244-2.7638-0.61513-0.64319-2.1273-0.59065-2.8681 0.12063-2.7809 2.67-4.928 4.9322-7.3919 7.3982-2.4025 2.4046-4.8848 4.7785-7.2076 7.2138-0.65525 0.68697-0.46048 2.0471 0.13436 2.6154 0.56726 0.54198 1.8666 0.66341 2.5113 0.0277 2.5581-2.5225 4.8051-4.8092 7.2076-7.2137 2.464-2.4661 4.6649-4.6111 7.3919-7.3982z"/>
</g>
<g transform="matrix(6.1879 0 0 -6.1879 1430 1524.2)" fill="#8062ff" stroke-width=".024152px">
<path d="m-32.425 99.896c-0.34916-0.35688-0.41161-1.0861-0.11258-1.3987 0.31132-0.32552 1.0766-0.29893 1.4516 0.06105 1.4074 1.3513 2.4941 2.4962 3.7411 3.7443 1.2159 1.217 2.4722 2.4184 3.6478 3.6509 0.33162 0.34768 0.23305 1.036-0.068 1.3237-0.28709 0.2743-0.94469 0.33576-1.271 0.014-1.2947-1.2767-2.4319-2.4339-3.6478-3.6509-1.247-1.2481-2.3609-2.3337-3.7411-3.7443z"/>
<path d="m-23.793 99.896c0.34917-0.35688 0.41161-1.0861 0.11258-1.3987-0.31132-0.32552-1.0766-0.29893-1.4516 0.06105-1.4074 1.3513-2.4941 2.4962-3.7411 3.7443-1.2159 1.217-2.4722 2.4184-3.6478 3.6509-0.33162 0.34768-0.23305 1.036 0.068 1.3237 0.28709 0.2743 0.9447 0.33576 1.271 0.014 1.2947-1.2767 2.4319-2.4339 3.6478-3.6509 1.247-1.2481 2.3609-2.3337 3.7411-3.7443z"/>
</g>
<g transform="matrix(6.1879 0 0 -6.1879 1770 1648.6)" fill="#8062ff" stroke-width=".024152px">
<path d="m-32.425 99.896c-0.34916-0.35688-0.41161-1.0861-0.11258-1.3987 0.31132-0.32552 1.0766-0.29893 1.4516 0.06105 1.4074 1.3513 2.4941 2.4962 3.7411 3.7443 1.2159 1.217 2.4722 2.4184 3.6478 3.6509 0.33162 0.34768 0.23305 1.036-0.068 1.3237-0.28709 0.2743-0.94469 0.33576-1.271 0.014-1.2947-1.2767-2.4319-2.4339-3.6478-3.6509-1.247-1.2481-2.3609-2.3337-3.7411-3.7443z"/>
<path d="m-23.793 99.896c0.34917-0.35688 0.41161-1.0861 0.11258-1.3987-0.31132-0.32552-1.0766-0.29893-1.4516 0.06105-1.4074 1.3513-2.4941 2.4962-3.7411 3.7443-1.2159 1.217-2.4722 2.4184-3.6478 3.6509-0.33162 0.34768-0.23305 1.036 0.068 1.3237 0.28709 0.2743 0.9447 0.33576 1.271 0.014 1.2947-1.2767 2.4319-2.4339 3.6478-3.6509 1.247-1.2481 2.3609-2.3337 3.7411-3.7443z"/>
</g>
<g transform="matrix(2.2113 -2.973 -2.973 -2.2113 1854.6 710.19)" fill="#8062ff" stroke-width=".047721px">
<path d="m-39.023 89.815c-0.68991-0.70514-0.81328-2.146-0.22244-2.7638 0.61513-0.64319 2.1273-0.59065 2.8681 0.12063 2.7809 2.67 4.928 4.9322 7.3919 7.3982 2.4025 2.4046 4.8848 4.7785 7.2076 7.2138 0.65525 0.68697 0.46048 2.0471-0.13437 2.6154-0.56726 0.54198-1.8666 0.66341-2.5113 0.0277-2.5581-2.5225-4.8051-4.8092-7.2076-7.2137-2.464-2.4661-4.6649-4.6111-7.3919-7.3982z"/>
<path d="m-21.968 89.815c0.68991-0.70514 0.81328-2.146 0.22244-2.7638-0.61513-0.64319-2.1273-0.59065-2.8681 0.12063-2.7809 2.67-4.928 4.9322-7.3919 7.3982-2.4025 2.4046-4.8848 4.7785-7.2076 7.2138-0.65525 0.68697-0.46048 2.0471 0.13436 2.6154 0.56726 0.54198 1.8666 0.66341 2.5113 0.0277 2.5581-2.5225 4.8051-4.8092 7.2076-7.2137 2.464-2.4661 4.6649-4.6111 7.3919-7.3982z"/>
</g>
<g transform="matrix(-1.4107 -2.6549 -2.6549 1.4107 1130 373.14)" fill="#8062ff" stroke-width=".047721px">
<path d="m-44.18 19.623c-0.68991-0.70514-0.81328-2.146-0.22244-2.7638 0.61513-0.64319 2.1273-0.59065 2.8681 0.12063 2.7809 2.67 4.928 4.9322 7.3919 7.3982 2.4025 2.4046 4.8848 4.7785 7.2076 7.2138 0.65525 0.68697 0.46048 2.0471-0.13437 2.6154-0.56726 0.54198-1.8666 0.66341-2.5113 0.0277-2.5581-2.5225-4.8051-4.8092-7.2076-7.2137-2.464-2.4661-4.6649-4.6111-7.3919-7.3982z"/>
<path d="m-27.125 19.623c0.68991-0.70514 0.81328-2.146 0.22244-2.7638-0.61513-0.64319-2.1273-0.59065-2.8681 0.12063-2.7809 2.67-4.928 4.9322-7.3919 7.3982-2.4025 2.4046-4.8848 4.7785-7.2076 7.2138-0.65525 0.68697-0.46048 2.0471 0.13436 2.6154 0.56726 0.54198 1.8666 0.66341 2.5113 0.0277 2.5581-2.5225 4.8051-4.8092 7.2076-7.2137 2.464-2.4661 4.6649-4.6111 7.3919-7.3982z"/>
</g>
<g transform="matrix(-1.4107 -2.6549 -2.6549 1.4107 1097.9 843.97)" fill="#8062ff" stroke-width=".047721px">
<path d="m-44.18 19.623c-0.68991-0.70514-0.81328-2.146-0.22244-2.7638 0.61513-0.64319 2.1273-0.59065 2.8681 0.12063 2.7809 2.67 4.928 4.9322 7.3919 7.3982 2.4025 2.4046 4.8848 4.7785 7.2076 7.2138 0.65525 0.68697 0.46048 2.0471-0.13437 2.6154-0.56726 0.54198-1.8666 0.66341-2.5113 0.0277-2.5581-2.5225-4.8051-4.8092-7.2076-7.2137-2.464-2.4661-4.6649-4.6111-7.3919-7.3982z"/>
<path d="m-27.125 19.623c0.68991-0.70514 0.81328-2.146 0.22244-2.7638-0.61513-0.64319-2.1273-0.59065-2.8681 0.12063-2.7809 2.67-4.928 4.9322-7.3919 7.3982-2.4025 2.4046-4.8848 4.7785-7.2076 7.2138-0.65525 0.68697-0.46048 2.0471 0.13436 2.6154 0.56726 0.54198 1.8666 0.66341 2.5113 0.0277 2.5581-2.5225 4.8051-4.8092 7.2076-7.2137 2.464-2.4661 4.6649-4.6111 7.3919-7.3982z"/>
</g>
<g transform="matrix(-1.6072 -2.1166 -2.1166 1.6072 2006.3 276.58)" fill="#8062ff" stroke-width=".047721px">
<path d="m-39.023 89.815c-0.68991-0.70514-0.81328-2.146-0.22244-2.7638 0.61513-0.64319 2.1273-0.59065 2.8681 0.12063 2.7809 2.67 4.928 4.9322 7.3919 7.3982 2.4025 2.4046 4.8848 4.7785 7.2076 7.2138 0.65525 0.68697 0.46048 2.0471-0.13437 2.6154-0.56726 0.54198-1.8666 0.66341-2.5113 0.0277-2.5581-2.5225-4.8051-4.8092-7.2076-7.2137-2.464-2.4661-4.6649-4.6111-7.3919-7.3982z"/>
<path d="m-21.968 89.815c0.68991-0.70514 0.81328-2.146 0.22244-2.7638-0.61513-0.64319-2.1273-0.59065-2.8681 0.12063-2.7809 2.67-4.928 4.9322-7.3919 7.3982-2.4025 2.4046-4.8848 4.7785-7.2076 7.2138-0.65525 0.68697-0.46048 2.0471 0.13436 2.6154 0.56726 0.54198 1.8666 0.66341 2.5113 0.0277 2.5581-2.5225 4.8051-4.8092 7.2076-7.2137 2.464-2.4661 4.6649-4.6111 7.3919-7.3982z"/>
</g>
<ellipse transform="scale(1,-1)" cx="1372.6" cy="-754.58" rx="24.531" ry="24.531" fill="none" stroke-width="11.39"/>
<g transform="matrix(5.0579 -3.0631 -3.0631 -5.0579 2174.5 1279.9)" fill="#8062ff" stroke-width=".047721px">
<path d="m-39.023 89.815c-0.68991-0.70514-0.81328-2.146-0.22244-2.7638 0.61513-0.64319 2.1273-0.59065 2.8681 0.12063 2.7809 2.67 4.928 4.9322 7.3919 7.3982 2.4025 2.4046 4.8848 4.7785 7.2076 7.2138 0.65525 0.68697 0.46048 2.0471-0.13437 2.6154-0.56726 0.54198-1.8666 0.66341-2.5113 0.0277-2.5581-2.5225-4.8051-4.8092-7.2076-7.2137-2.464-2.4661-4.6649-4.6111-7.3919-7.3982z"/>
<path d="m-21.968 89.815c0.68991-0.70514 0.81328-2.146 0.22244-2.7638-0.61513-0.64319-2.1273-0.59065-2.8681 0.12063-2.7809 2.67-4.928 4.9322-7.3919 7.3982-2.4025 2.4046-4.8848 4.7785-7.2076 7.2138-0.65525 0.68697-0.46048 2.0471 0.13436 2.6154 0.56726 0.54198 1.8666 0.66341 2.5113 0.0277 2.5581-2.5225 4.8051-4.8092 7.2076-7.2137 2.464-2.4661 4.6649-4.6111 7.3919-7.3982z"/>
</g>
<g transform="matrix(2.6743 .65446 .65446 -2.6743 1871 1047)" fill="#8062ff" stroke-width=".047721px">
<path d="m-39.023 89.815c-0.68991-0.70514-0.81328-2.146-0.22244-2.7638 0.61513-0.64319 2.1273-0.59065 2.8681 0.12063 2.7809 2.67 4.928 4.9322 7.3919 7.3982 2.4025 2.4046 4.8848 4.7785 7.2076 7.2138 0.65525 0.68697 0.46048 2.0471-0.13437 2.6154-0.56726 0.54198-1.8666 0.66341-2.5113 0.0277-2.5581-2.5225-4.8051-4.8092-7.2076-7.2137-2.464-2.4661-4.6649-4.6111-7.3919-7.3982z"/>
<path d="m-21.968 89.815c0.68991-0.70514 0.81328-2.146 0.22244-2.7638-0.61513-0.64319-2.1273-0.59065-2.8681 0.12063-2.7809 2.67-4.928 4.9322-7.3919 7.3982-2.4025 2.4046-4.8848 4.7785-7.2076 7.2138-0.65525 0.68697-0.46048 2.0471 0.13436 2.6154 0.56726 0.54198 1.8666 0.66341 2.5113 0.0277 2.5581-2.5225 4.8051-4.8092 7.2076-7.2137 2.464-2.4661 4.6649-4.6111 7.3919-7.3982z"/>
</g>
<g transform="matrix(1.2955 -3.7648 -3.7648 -1.2955 1759.5 284.97)" fill="#8062ff" stroke-width=".047721px">
<path d="m-39.023 89.815c-0.68991-0.70514-0.81328-2.146-0.22244-2.7638 0.61513-0.64319 2.1273-0.59065 2.8681 0.12063 2.7809 2.67 4.928 4.9322 7.3919 7.3982 2.4025 2.4046 4.8848 4.7785 7.2076 7.2138 0.65525 0.68697 0.46048 2.0471-0.13437 2.6154-0.56726 0.54198-1.8666 0.66341-2.5113 0.0277-2.5581-2.5225-4.8051-4.8092-7.2076-7.2137-2.464-2.4661-4.6649-4.6111-7.3919-7.3982z"/>
<path d="m-21.968 89.815c0.68991-0.70514 0.81328-2.146 0.22244-2.7638-0.61513-0.64319-2.1273-0.59065-2.8681 0.12063-2.7809 2.67-4.928 4.9322-7.3919 7.3982-2.4025 2.4046-4.8848 4.7785-7.2076 7.2138-0.65525 0.68697-0.46048 2.0471 0.13436 2.6154 0.56726 0.54198 1.8666 0.66341 2.5113 0.0277 2.5581-2.5225 4.8051-4.8092 7.2076-7.2137 2.464-2.4661 4.6649-4.6111 7.3919-7.3982z"/>
</g>
<g transform="matrix(1.1889 -4.4767 -4.59 -1.2546 1804.7 478.13)" fill="#8062ff" stroke-width=".047721px">
<path d="m-39.023 89.815c-0.68991-0.70514-0.81328-2.146-0.22244-2.7638 0.61513-0.64319 2.1273-0.59065 2.8681 0.12063 2.7809 2.67 4.928 4.9322 7.3919 7.3982 2.4025 2.4046 4.8848 4.7785 7.2076 7.2138 0.65525 0.68697 0.46048 2.0471-0.13437 2.6154-0.56726 0.54198-1.8666 0.66341-2.5113 0.0277-2.5581-2.5225-4.8051-4.8092-7.2076-7.2137-2.464-2.4661-4.6649-4.6111-7.3919-7.3982z"/>
<path d="m-21.968 89.815c0.68991-0.70514 0.81328-2.146 0.22244-2.7638-0.61513-0.64319-2.1273-0.59065-2.8681 0.12063-2.7809 2.67-4.928 4.9322-7.3919 7.3982-2.4025 2.4046-4.8848 4.7785-7.2076 7.2138-0.65525 0.68697-0.46048 2.0471 0.13436 2.6154 0.56726 0.54198 1.8666 0.66341 2.5113 0.0277 2.5581-2.5225 4.8051-4.8092 7.2076-7.2137 2.464-2.4661 4.6649-4.6111 7.3919-7.3982z"/>
</g>
<g transform="matrix(4.0839 -1.611 -1.611 -4.0839 1323.3 572.99)" fill="#8062ff" stroke-width=".047721px">
<path d="m-39.023 89.815c-0.68991-0.70514-0.81328-2.146-0.22244-2.7638 0.61513-0.64319 2.1273-0.59065 2.8681 0.12063 2.7809 2.67 4.928 4.9322 7.3919 7.3982 2.4025 2.4046 4.8848 4.7785 7.2076 7.2138 0.65525 0.68697 0.46048 2.0471-0.13437 2.6154-0.56726 0.54198-1.8666 0.66341-2.5113 0.0277-2.5581-2.5225-4.8051-4.8092-7.2076-7.2137-2.464-2.4661-4.6649-4.6111-7.3919-7.3982z"/>
<path d="m-21.968 89.815c0.68991-0.70514 0.81328-2.146 0.22244-2.7638-0.61513-0.64319-2.1273-0.59065-2.8681 0.12063-2.7809 2.67-4.928 4.9322-7.3919 7.3982-2.4025 2.4046-4.8848 4.7785-7.2076 7.2138-0.65525 0.68697-0.46048 2.0471 0.13436 2.6154 0.56726 0.54198 1.8666 0.66341 2.5113 0.0277 2.5581-2.5225 4.8051-4.8092 7.2076-7.2137 2.464-2.4661 4.6649-4.6111 7.3919-7.3982z"/>
</g>
<g transform="matrix(2.2194 -.94612 -.94612 -2.2194 1657.2 296.6)" fill="#8062ff" stroke-width=".047721px">
<path d="m-46.88 88.729c-0.68991-0.70514-0.81328-2.146-0.22244-2.7638 0.61513-0.64319 2.1273-0.59065 2.8681 0.12063 2.7809 2.67 4.928 4.9322 7.3919 7.3982 2.4025 2.4046 4.8848 4.7785 7.2076 7.2138 0.65525 0.68697 0.46048 2.0471-0.13437 2.6154-0.56726 0.54198-1.8666 0.66341-2.5113 0.0277-2.5581-2.5225-4.8051-4.8092-7.2076-7.2137-2.464-2.4661-4.6649-4.6111-7.3919-7.3982z"/>
<path d="m-29.825 88.728c0.68991-0.70514 0.81328-2.146 0.22244-2.7638-0.61513-0.64319-2.1273-0.59065-2.8681 0.12063-2.7809 2.67-4.928 4.9322-7.3919 7.3982-2.4025 2.4046-4.8848 4.7785-7.2076 7.2138-0.65525 0.68697-0.46048 2.0471 0.13436 2.6154 0.56726 0.54198 1.8666 0.66341 2.5113 0.0277 2.5581-2.5225 4.8051-4.8092 7.2076-7.2138 2.464-2.4661 4.6649-4.6111 7.3919-7.3982z"/>
</g>
<g transform="matrix(4.4452 3.0476 3.0476 -4.4452 1607 895.58)" fill="#8062ff" stroke-width=".047721px">
<path d="m-39.023 89.815c-0.68991-0.70514-0.81328-2.146-0.22244-2.7638 0.61513-0.64319 2.1273-0.59065 2.8681 0.12063 2.7809 2.67 4.928 4.9322 7.3919 7.3982 2.4025 2.4046 4.8848 4.7785 7.2076 7.2138 0.65525 0.68697 0.46048 2.0471-0.13437 2.6154-0.56726 0.54198-1.8666 0.66341-2.5113 0.0277-2.5581-2.5225-4.8051-4.8092-7.2076-7.2137-2.464-2.4661-4.6649-4.6111-7.3919-7.3982z"/>
<path d="m-21.968 89.815c0.68991-0.70514 0.81328-2.146 0.22244-2.7638-0.61513-0.64319-2.1273-0.59065-2.8681 0.12063-2.7809 2.67-4.928 4.9322-7.3919 7.3982-2.4025 2.4046-4.8848 4.7785-7.2076 7.2138-0.65525 0.68697-0.46048 2.0471 0.13436 2.6154 0.56726 0.54198 1.8666 0.66341 2.5113 0.0277 2.5581-2.5225 4.8051-4.8092 7.2076-7.2137 2.464-2.4661 4.6649-4.6111 7.3919-7.3982z"/>
</g>
<ellipse transform="scale(1,-1)" cx="1243" cy="-664.33" rx="36.517" ry="36.517" fill="none" stroke-width="16.956"/>
<ellipse transform="scale(1,-1)" cx="1175" cy="-365.78" rx="36.517" ry="36.517" fill="none" stroke-width="16.956"/>
<ellipse transform="scale(1,-1)" cx="1576.1" cy="-767.71" rx="36.517" ry="36.517" fill="none" stroke-width="16.956"/>
<ellipse transform="scale(1,-1)" cx="1495.7" cy="-920.31" rx="33.853" ry="33.853" fill="none" stroke-width="15.719"/>
<ellipse transform="scale(1,-1)" cx="1729.9" cy="-669.63" rx="21.565" ry="21.565" fill="none" stroke-width="10.013"/>
<ellipse transform="scale(1,-1)" cx="1825.5" cy="-203.24" rx="24.531" ry="24.531" fill="none" stroke-width="11.39"/>
<ellipse transform="scale(1,-1)" cx="1612.2" cy="-229.5" rx="24.531" ry="24.531" fill="none" stroke-width="11.39"/>
<ellipse transform="scale(1,-1)" cx="1856" cy="-991.04" rx="24.531" ry="24.531" fill="none" stroke-width="11.39"/>
<ellipse transform="scale(1,-1)" cx="1638.4" cy="-492.04" rx="24.531" ry="24.531" fill="none" stroke-width="11.39"/>
<ellipse transform="scale(1,-1)" cx="1345.5" cy="-995.68" rx="24.531" ry="24.531" fill="none" stroke-width="11.39"/>
<ellipse transform="scale(1,-1)" cx="1684.4" cy="-98.224" rx="32.522" ry="32.522" fill="none" stroke-width="15.101"/>
<ellipse transform="scale(1,-1)" cx="1289.8" cy="-106.71" rx="40.512" ry="40.512" fill="none" stroke-width="18.811"/>
</g>
<g opacity=".40683" stroke="#8861ff">
<g transform="matrix(3.8688 -2.5122 -2.5122 -3.8688 2049.1 582.44)" fill="#8062ff" stroke-width=".047721px">
<path d="m-39.023 89.815c-0.68991-0.70514-0.81328-2.146-0.22244-2.7638 0.61513-0.64319 2.1273-0.59065 2.8681 0.12063 2.7809 2.67 4.928 4.9322 7.3919 7.3982 2.4025 2.4046 4.8848 4.7785 7.2076 7.2138 0.65525 0.68697 0.46048 2.0471-0.13437 2.6154-0.56726 0.54198-1.8666 0.66341-2.5113 0.0277-2.5581-2.5225-4.8051-4.8092-7.2076-7.2137-2.464-2.4661-4.6649-4.6111-7.3919-7.3982z"/>
<path d="m-21.968 89.815c0.68991-0.70514 0.81328-2.146 0.22244-2.7638-0.61513-0.64319-2.1273-0.59065-2.8681 0.12063-2.7809 2.67-4.928 4.9322-7.3919 7.3982-2.4025 2.4046-4.8848 4.7785-7.2076 7.2138-0.65525 0.68697-0.46048 2.0471 0.13436 2.6154 0.56726 0.54198 1.8666 0.66341 2.5113 0.0277 2.5581-2.5225 4.8051-4.8092 7.2076-7.2137 2.464-2.4661 4.6649-4.6111 7.3919-7.3982z"/>
</g>
<g transform="matrix(.94708 -4.5147 -4.5147 -.94708 1425.1 350.86)" fill="#8062ff" stroke-width=".047721px">
<path d="m-39.023 89.815c-0.68991-0.70514-0.81328-2.146-0.22244-2.7638 0.61513-0.64319 2.1273-0.59065 2.8681 0.12063 2.7809 2.67 4.928 4.9322 7.3919 7.3982 2.4025 2.4046 4.8848 4.7785 7.2076 7.2138 0.65525 0.68697 0.46048 2.0471-0.13437 2.6154-0.56726 0.54198-1.8666 0.66341-2.5113 0.0277-2.5581-2.5225-4.8051-4.8092-7.2076-7.2137-2.464-2.4661-4.6649-4.6111-7.3919-7.3982z"/>
<path d="m-21.968 89.815c0.68991-0.70514 0.81328-2.146 0.22244-2.7638-0.61513-0.64319-2.1273-0.59065-2.8681 0.12063-2.7809 2.67-4.928 4.9322-7.3919 7.3982-2.4025 2.4046-4.8848 4.7785-7.2076 7.2138-0.65525 0.68697-0.46048 2.0471 0.13436 2.6154 0.56726 0.54198 1.8666 0.66341 2.5113 0.0277 2.5581-2.5225 4.8051-4.8092 7.2076-7.2137 2.464-2.4661 4.6649-4.6111 7.3919-7.3982z"/>
</g>
<g transform="matrix(4.6633 -5.4427 -5.4427 -4.6633 1815 1142.4)" fill="#8062ff" stroke-width=".047721px">
<path d="m-39.023 89.815c-0.68991-0.70514-0.81328-2.146-0.22244-2.7638 0.61513-0.64319 2.1273-0.59065 2.8681 0.12063 2.7809 2.67 4.928 4.9322 7.3919 7.3982 2.4025 2.4046 4.8848 4.7785 7.2076 7.2138 0.65525 0.68697 0.46048 2.0471-0.13437 2.6154-0.56726 0.54198-1.8666 0.66341-2.5113 0.0277-2.5581-2.5225-4.8051-4.8092-7.2076-7.2137-2.464-2.4661-4.6649-4.6111-7.3919-7.3982z"/>
<path d="m-21.968 89.815c0.68991-0.70514 0.81328-2.146 0.22244-2.7638-0.61513-0.64319-2.1273-0.59065-2.8681 0.12063-2.7809 2.67-4.928 4.9322-7.3919 7.3982-2.4025 2.4046-4.8848 4.7785-7.2076 7.2138-0.65525 0.68697-0.46048 2.0471 0.13436 2.6154 0.56726 0.54198 1.8666 0.66341 2.5113 0.0277 2.5581-2.5225 4.8051-4.8092 7.2076-7.2137 2.464-2.4661 4.6649-4.6111 7.3919-7.3982z"/>
</g>
<g transform="matrix(8.2552 0 0 -8.2552 1574.4 1840.6)" fill="#8062ff" stroke-width=".024152px">
<path d="m-32.425 99.896c-0.34916-0.35688-0.41161-1.0861-0.11258-1.3987 0.31132-0.32552 1.0766-0.29893 1.4516 0.06105 1.4074 1.3513 2.4941 2.4962 3.7411 3.7443 1.2159 1.217 2.4722 2.4184 3.6478 3.6509 0.33162 0.34768 0.23305 1.036-0.068 1.3237-0.28709 0.2743-0.94469 0.33576-1.271 0.014-1.2947-1.2767-2.4319-2.4339-3.6478-3.6509-1.247-1.2481-2.3609-2.3337-3.7411-3.7443z"/>
<path d="m-23.793 99.896c0.34917-0.35688 0.41161-1.0861 0.11258-1.3987-0.31132-0.32552-1.0766-0.29893-1.4516 0.06105-1.4074 1.3513-2.4941 2.4962-3.7411 3.7443-1.2159 1.217-2.4722 2.4184-3.6478 3.6509-0.33162 0.34768-0.23305 1.036 0.068 1.3237 0.28709 0.2743 0.9447 0.33576 1.271 0.014 1.2947-1.2767 2.4319-2.4339 3.6478-3.6509 1.247-1.2481 2.3609-2.3337 3.7411-3.7443z"/>
</g>
<g transform="matrix(2.95 -3.9663 -3.9663 -2.95 2140.7 754.66)" fill="#8062ff" stroke-width=".047721px">
<path d="m-39.023 89.815c-0.68991-0.70514-0.81328-2.146-0.22244-2.7638 0.61513-0.64319 2.1273-0.59065 2.8681 0.12063 2.7809 2.67 4.928 4.9322 7.3919 7.3982 2.4025 2.4046 4.8848 4.7785 7.2076 7.2138 0.65525 0.68697 0.46048 2.0471-0.13437 2.6154-0.56726 0.54198-1.8666 0.66341-2.5113 0.0277-2.5581-2.5225-4.8051-4.8092-7.2076-7.2137-2.464-2.4661-4.6649-4.6111-7.3919-7.3982z"/>
<path d="m-21.968 89.815c0.68991-0.70514 0.81328-2.146 0.22244-2.7638-0.61513-0.64319-2.1273-0.59065-2.8681 0.12063-2.7809 2.67-4.928 4.9322-7.3919 7.3982-2.4025 2.4046-4.8848 4.7785-7.2076 7.2138-0.65525 0.68697-0.46048 2.0471 0.13436 2.6154 0.56726 0.54198 1.8666 0.66341 2.5113 0.0277 2.5581-2.5225 4.8051-4.8092 7.2076-7.2137 2.464-2.4661 4.6649-4.6111 7.3919-7.3982z"/>
</g>
<g transform="matrix(-1.8819 -3.5418 -3.5418 1.8819 1131.3 933.13)" fill="#8062ff" stroke-width=".047721px">
<path d="m-44.18 19.623c-0.68991-0.70514-0.81328-2.146-0.22244-2.7638 0.61513-0.64319 2.1273-0.59065 2.8681 0.12063 2.7809 2.67 4.928 4.9322 7.3919 7.3982 2.4025 2.4046 4.8848 4.7785 7.2076 7.2138 0.65525 0.68697 0.46048 2.0471-0.13437 2.6154-0.56726 0.54198-1.8666 0.66341-2.5113 0.0277-2.5581-2.5225-4.8051-4.8092-7.2076-7.2137-2.464-2.4661-4.6649-4.6111-7.3919-7.3982z"/>
<path d="m-27.125 19.623c0.68991-0.70514 0.81328-2.146 0.22244-2.7638-0.61513-0.64319-2.1273-0.59065-2.8681 0.12063-2.7809 2.67-4.928 4.9322-7.3919 7.3982-2.4025 2.4046-4.8848 4.7785-7.2076 7.2138-0.65525 0.68697-0.46048 2.0471 0.13436 2.6154 0.56726 0.54198 1.8666 0.66341 2.5113 0.0277 2.5581-2.5225 4.8051-4.8092 7.2076-7.2137 2.464-2.4661 4.6649-4.6111 7.3919-7.3982z"/>
</g>
<ellipse transform="scale(1,-1)" cx="1497.8" cy="-813.89" rx="32.727" ry="32.727" fill="none" stroke-width="15.196"/>
<g transform="matrix(6.7477 -4.0864 -4.0864 -6.7477 2567.6 1514.7)" fill="#8062ff" stroke-width=".047721px">
<path d="m-39.023 89.815c-0.68991-0.70514-0.81328-2.146-0.22244-2.7638 0.61513-0.64319 2.1273-0.59065 2.8681 0.12063 2.7809 2.67 4.928 4.9322 7.3919 7.3982 2.4025 2.4046 4.8848 4.7785 7.2076 7.2138 0.65525 0.68697 0.46048 2.0471-0.13437 2.6154-0.56726 0.54198-1.8666 0.66341-2.5113 0.0277-2.5581-2.5225-4.8051-4.8092-7.2076-7.2137-2.464-2.4661-4.6649-4.6111-7.3919-7.3982z"/>
<path d="m-21.968 89.815c0.68991-0.70514 0.81328-2.146 0.22244-2.7638-0.61513-0.64319-2.1273-0.59065-2.8681 0.12063-2.7809 2.67-4.928 4.9322-7.3919 7.3982-2.4025 2.4046-4.8848 4.7785-7.2076 7.2138-0.65525 0.68697-0.46048 2.0471 0.13436 2.6154 0.56726 0.54198 1.8666 0.66341 2.5113 0.0277 2.5581-2.5225 4.8051-4.8092 7.2076-7.2137 2.464-2.4661 4.6649-4.6111 7.3919-7.3982z"/>
</g>
<g transform="matrix(1.7283 -5.0226 -5.0226 -1.7283 2013.9 187.38)" fill="#8062ff" stroke-width=".047721px">
<path d="m-39.023 89.815c-0.68991-0.70514-0.81328-2.146-0.22244-2.7638 0.61513-0.64319 2.1273-0.59065 2.8681 0.12063 2.7809 2.67 4.928 4.9322 7.3919 7.3982 2.4025 2.4046 4.8848 4.7785 7.2076 7.2138 0.65525 0.68697 0.46048 2.0471-0.13437 2.6154-0.56726 0.54198-1.8666 0.66341-2.5113 0.0277-2.5581-2.5225-4.8051-4.8092-7.2076-7.2137-2.464-2.4661-4.6649-4.6111-7.3919-7.3982z"/>
<path d="m-21.968 89.815c0.68991-0.70514 0.81328-2.146 0.22244-2.7638-0.61513-0.64319-2.1273-0.59065-2.8681 0.12063-2.7809 2.67-4.928 4.9322-7.3919 7.3982-2.4025 2.4046-4.8848 4.7785-7.2076 7.2138-0.65525 0.68697-0.46048 2.0471 0.13436 2.6154 0.56726 0.54198 1.8666 0.66341 2.5113 0.0277 2.5581-2.5225 4.8051-4.8092 7.2076-7.2137 2.464-2.4661 4.6649-4.6111 7.3919-7.3982z"/>
</g>
<g transform="matrix(-.78822 -5.8091 -5.9736 .76652 2013.8 202.67)" fill="#8062ff" stroke-width=".047721px">
<path d="m-39.023 89.815c-0.68991-0.70514-0.81328-2.146-0.22244-2.7638 0.61513-0.64319 2.1273-0.59065 2.8681 0.12063 2.7809 2.67 4.928 4.9322 7.3919 7.3982 2.4025 2.4046 4.8848 4.7785 7.2076 7.2138 0.65525 0.68697 0.46048 2.0471-0.13437 2.6154-0.56726 0.54198-1.8666 0.66341-2.5113 0.0277-2.5581-2.5225-4.8051-4.8092-7.2076-7.2137-2.464-2.4661-4.6649-4.6111-7.3919-7.3982z"/>
<path d="m-21.968 89.815c0.68991-0.70514 0.81328-2.146 0.22244-2.7638-0.61513-0.64319-2.1273-0.59065-2.8681 0.12063-2.7809 2.67-4.928 4.9322-7.3919 7.3982-2.4025 2.4046-4.8848 4.7785-7.2076 7.2138-0.65525 0.68697-0.46048 2.0471 0.13436 2.6154 0.56726 0.54198 1.8666 0.66341 2.5113 0.0277 2.5581-2.5225 4.8051-4.8092 7.2076-7.2137 2.464-2.4661 4.6649-4.6111 7.3919-7.3982z"/>
</g>
<g transform="matrix(5.4483 -2.1492 -2.1492 -5.4483 1528 511.59)" fill="#8062ff" stroke-width=".047721px">
<path d="m-39.023 89.815c-0.68991-0.70514-0.81328-2.146-0.22244-2.7638 0.61513-0.64319 2.1273-0.59065 2.8681 0.12063 2.7809 2.67 4.928 4.9322 7.3919 7.3982 2.4025 2.4046 4.8848 4.7785 7.2076 7.2138 0.65525 0.68697 0.46048 2.0471-0.13437 2.6154-0.56726 0.54198-1.8666 0.66341-2.5113 0.0277-2.5581-2.5225-4.8051-4.8092-7.2076-7.2137-2.464-2.4661-4.6649-4.6111-7.3919-7.3982z"/>
<path d="m-21.968 89.815c0.68991-0.70514 0.81328-2.146 0.22244-2.7638-0.61513-0.64319-2.1273-0.59065-2.8681 0.12063-2.7809 2.67-4.928 4.9322-7.3919 7.3982-2.4025 2.4046-4.8848 4.7785-7.2076 7.2138-0.65525 0.68697-0.46048 2.0471 0.13436 2.6154 0.56726 0.54198 1.8666 0.66341 2.5113 0.0277 2.5581-2.5225 4.8051-4.8092 7.2076-7.2137 2.464-2.4661 4.6649-4.6111 7.3919-7.3982z"/>
</g>
<g transform="matrix(2.9608 -1.2622 -1.2622 -2.9608 1877.5 202.89)" fill="#8062ff" stroke-width=".047721px">
<path d="m-46.88 88.729c-0.68991-0.70514-0.81328-2.146-0.22244-2.7638 0.61513-0.64319 2.1273-0.59065 2.8681 0.12063 2.7809 2.67 4.928 4.9322 7.3919 7.3982 2.4025 2.4046 4.8848 4.7785 7.2076 7.2138 0.65525 0.68697 0.46048 2.0471-0.13437 2.6154-0.56726 0.54198-1.8666 0.66341-2.5113 0.0277-2.5581-2.5225-4.8051-4.8092-7.2076-7.2137-2.464-2.4661-4.6649-4.6111-7.3919-7.3982z"/>
<path d="m-29.825 88.728c0.68991-0.70514 0.81328-2.146 0.22244-2.7638-0.61513-0.64319-2.1273-0.59065-2.8681 0.12063-2.7809 2.67-4.928 4.9322-7.3919 7.3982-2.4025 2.4046-4.8848 4.7785-7.2076 7.2138-0.65525 0.68697-0.46048 2.0471 0.13436 2.6154 0.56726 0.54198 1.8666 0.66341 2.5113 0.0277 2.5581-2.5225 4.8051-4.8092 7.2076-7.2138 2.464-2.4661 4.6649-4.6111 7.3919-7.3982z"/>
</g>
<g transform="matrix(7.1361 .88117 .88117 -7.1361 2151.9 1020.1)" fill="#8062ff" stroke-width=".047721px">
<path d="m-39.023 89.815c-0.68991-0.70514-0.81328-2.146-0.22244-2.7638 0.61513-0.64319 2.1273-0.59065 2.8681 0.12063 2.7809 2.67 4.928 4.9322 7.3919 7.3982 2.4025 2.4046 4.8848 4.7785 7.2076 7.2138 0.65525 0.68697 0.46048 2.0471-0.13437 2.6154-0.56726 0.54198-1.8666 0.66341-2.5113 0.0277-2.5581-2.5225-4.8051-4.8092-7.2076-7.2137-2.464-2.4661-4.6649-4.6111-7.3919-7.3982z"/>
<path d="m-21.968 89.815c0.68991-0.70514 0.81328-2.146 0.22244-2.7638-0.61513-0.64319-2.1273-0.59065-2.8681 0.12063-2.7809 2.67-4.928 4.9322-7.3919 7.3982-2.4025 2.4046-4.8848 4.7785-7.2076 7.2138-0.65525 0.68697-0.46048 2.0471 0.13436 2.6154 0.56726 0.54198 1.8666 0.66341 2.5113 0.0277 2.5581-2.5225 4.8051-4.8092 7.2076-7.2137 2.464-2.4661 4.6649-4.6111 7.3919-7.3982z"/>
</g>
<ellipse transform="scale(1,-1)" cx="856.81" cy="-1122.7" rx="32.727" ry="32.727" fill="none" stroke-width="15.196"/>
<ellipse transform="scale(1,-1)" cx="1336.2" cy="-676.5" rx="48.717" ry="48.717" fill="none" stroke-width="22.62"/>
<ellipse transform="scale(1,-1)" cx="1234.1" cy="-295.19" rx="48.717" ry="48.717" fill="none" stroke-width="22.62"/>
<ellipse transform="scale(1,-1)" cx="1793.2" cy="-807.38" rx="29.227" ry="29.227" fill="none" stroke-width="13.571"/>
<ellipse transform="scale(1,-1)" cx="991.73" cy="-176.17" rx="29.227" ry="29.227" fill="none" stroke-width="13.571"/>
<ellipse transform="scale(1,-1)" cx="1662" cy="-1035" rx="45.164" ry="45.164" fill="none" stroke-width="20.971"/>
<ellipse transform="scale(1,-1)" cx="1992.5" cy="-682.54" rx="43.387" ry="43.387" fill="#8062ff" stroke-width="20.146"/>
<ellipse transform="scale(1,-1)" cx="1817.4" cy="-113.37" rx="32.727" ry="32.727" fill="none" stroke-width="15.196"/>
<ellipse transform="scale(1,-1)" cx="959.64" cy="-725.06" rx="32.727" ry="32.727" fill="none" stroke-width="15.196"/>
<ellipse transform="scale(1,-1)" cx="1852.4" cy="-463.63" rx="32.727" ry="32.727" fill="none" stroke-width="15.196"/>
<ellipse transform="scale(1,-1)" cx="1461.6" cy="-1135.5" rx="32.727" ry="32.727" fill="#8062ff" stroke-width="15.196"/>
<ellipse transform="scale(1,-1)" cx="1387.4" cy="50.434" rx="54.047" ry="54.047" fill="none" stroke-width="25.095"/>
<g transform="matrix(-3.8688 2.5122 2.5122 3.8688 -122.88 474.79)" fill="#8062ff" stroke-width=".047721px">
<path d="m-39.023 89.815c-0.68991-0.70514-0.81328-2.146-0.22244-2.7638 0.61513-0.64319 2.1273-0.59065 2.8681 0.12063 2.7809 2.67 4.928 4.9322 7.3919 7.3982 2.4025 2.4046 4.8848 4.7785 7.2076 7.2138 0.65525 0.68697 0.46048 2.0471-0.13437 2.6154-0.56726 0.54198-1.8666 0.66341-2.5113 0.0277-2.5581-2.5225-4.8051-4.8092-7.2076-7.2137-2.464-2.4661-4.6649-4.6111-7.3919-7.3982z"/>
<path d="m-21.968 89.815c0.68991-0.70514 0.81328-2.146 0.22244-2.7638-0.61513-0.64319-2.1273-0.59065-2.8681 0.12063-2.7809 2.67-4.928 4.9322-7.3919 7.3982-2.4025 2.4046-4.8848 4.7785-7.2076 7.2138-0.65525 0.68697-0.46048 2.0471 0.13436 2.6154 0.56726 0.54198 1.8666 0.66341 2.5113 0.0277 2.5581-2.5225 4.8051-4.8092 7.2076-7.2137 2.464-2.4661 4.6649-4.6111 7.3919-7.3982z"/>
</g>
<g transform="matrix(-4.6633 5.4427 5.4427 4.6633 111.22 -85.141)" fill="#8062ff" stroke-width=".047721px">
<path d="m-39.023 89.815c-0.68991-0.70514-0.81328-2.146-0.22244-2.7638 0.61513-0.64319 2.1273-0.59065 2.8681 0.12063 2.7809 2.67 4.928 4.9322 7.3919 7.3982 2.4025 2.4046 4.8848 4.7785 7.2076 7.2138 0.65525 0.68697 0.46048 2.0471-0.13437 2.6154-0.56726 0.54198-1.8666 0.66341-2.5113 0.0277-2.5581-2.5225-4.8051-4.8092-7.2076-7.2137-2.464-2.4661-4.6649-4.6111-7.3919-7.3982z"/>
<path d="m-21.968 89.815c0.68991-0.70514 0.81328-2.146 0.22244-2.7638-0.61513-0.64319-2.1273-0.59065-2.8681 0.12063-2.7809 2.67-4.928 4.9322-7.3919 7.3982-2.4025 2.4046-4.8848 4.7785-7.2076 7.2138-0.65525 0.68697-0.46048 2.0471 0.13436 2.6154 0.56726 0.54198 1.8666 0.66341 2.5113 0.0277 2.5581-2.5225 4.8051-4.8092 7.2076-7.2137 2.464-2.4661 4.6649-4.6111 7.3919-7.3982z"/>
</g>
<g transform="matrix(-8.2552 0 0 8.2552 351.85 -783.34)" fill="#8062ff" stroke-width=".024152px">
<path d="m-32.425 99.896c-0.34916-0.35688-0.41161-1.0861-0.11258-1.3987 0.31132-0.32552 1.0766-0.29893 1.4516 0.06105 1.4074 1.3513 2.4941 2.4962 3.7411 3.7443 1.2159 1.217 2.4722 2.4184 3.6478 3.6509 0.33162 0.34768 0.23305 1.036-0.068 1.3237-0.28709 0.2743-0.94469 0.33576-1.271 0.014-1.2947-1.2767-2.4319-2.4339-3.6478-3.6509-1.247-1.2481-2.3609-2.3337-3.7411-3.7443z"/>
<path d="m-23.793 99.896c0.34917-0.35688 0.41161-1.0861 0.11258-1.3987-0.31132-0.32552-1.0766-0.29893-1.4516 0.06105-1.4074 1.3513-2.4941 2.4962-3.7411 3.7443-1.2159 1.217-2.4722 2.4184-3.6478 3.6509-0.33162 0.34768-0.23305 1.036 0.068 1.3237 0.28709 0.2743 0.9447 0.33576 1.271 0.014 1.2947-1.2767 2.4319-2.4339 3.6478-3.6509 1.247-1.2481 2.3609-2.3337 3.7411-3.7443z"/>
</g>
<g transform="matrix(-2.95 3.9663 3.9663 2.95 -214.49 302.57)" fill="#8062ff" stroke-width=".047721px">
<path d="m-39.023 89.815c-0.68991-0.70514-0.81328-2.146-0.22244-2.7638 0.61513-0.64319 2.1273-0.59065 2.8681 0.12063 2.7809 2.67 4.928 4.9322 7.3919 7.3982 2.4025 2.4046 4.8848 4.7785 7.2076 7.2138 0.65525 0.68697 0.46048 2.0471-0.13437 2.6154-0.56726 0.54198-1.8666 0.66341-2.5113 0.0277-2.5581-2.5225-4.8051-4.8092-7.2076-7.2137-2.464-2.4661-4.6649-4.6111-7.3919-7.3982z"/>
<path d="m-21.968 89.815c0.68991-0.70514 0.81328-2.146 0.22244-2.7638-0.61513-0.64319-2.1273-0.59065-2.8681 0.12063-2.7809 2.67-4.928 4.9322-7.3919 7.3982-2.4025 2.4046-4.8848 4.7785-7.2076 7.2138-0.65525 0.68697-0.46048 2.0471 0.13436 2.6154 0.56726 0.54198 1.8666 0.66341 2.5113 0.0277 2.5581-2.5225 4.8051-4.8092 7.2076-7.2137 2.464-2.4661 4.6649-4.6111 7.3919-7.3982z"/>
</g>
<g transform="matrix(1.8819 3.5418 3.5418 -1.8819 794.97 124.1)" fill="#8062ff" stroke-width=".047721px">
<path d="m-44.18 19.623c-0.68991-0.70514-0.81328-2.146-0.22244-2.7638 0.61513-0.64319 2.1273-0.59065 2.8681 0.12063 2.7809 2.67 4.928 4.9322 7.3919 7.3982 2.4025 2.4046 4.8848 4.7785 7.2076 7.2138 0.65525 0.68697 0.46048 2.0471-0.13437 2.6154-0.56726 0.54198-1.8666 0.66341-2.5113 0.0277-2.5581-2.5225-4.8051-4.8092-7.2076-7.2137-2.464-2.4661-4.6649-4.6111-7.3919-7.3982z"/>
<path d="m-27.125 19.623c0.68991-0.70514 0.81328-2.146 0.22244-2.7638-0.61513-0.64319-2.1273-0.59065-2.8681 0.12063-2.7809 2.67-4.928 4.9322-7.3919 7.3982-2.4025 2.4046-4.8848 4.7785-7.2076 7.2138-0.65525 0.68697-0.46048 2.0471 0.13436 2.6154 0.56726 0.54198 1.8666 0.66341 2.5113 0.0277 2.5581-2.5225 4.8051-4.8092 7.2076-7.2137 2.464-2.4661 4.6649-4.6111 7.3919-7.3982z"/>
</g>
<ellipse transform="scale(-1,1)" cx="-428.47" cy="243.34" rx="32.727" ry="32.727" fill="none" stroke-width="15.196"/>
<g transform="matrix(-6.7477 4.0864 4.0864 6.7477 -641.36 -457.52)" fill="#8062ff" stroke-width=".047721px">
<path d="m-39.023 89.815c-0.68991-0.70514-0.81328-2.146-0.22244-2.7638 0.61513-0.64319 2.1273-0.59065 2.8681 0.12063 2.7809 2.67 4.928 4.9322 7.3919 7.3982 2.4025 2.4046 4.8848 4.7785 7.2076 7.2138 0.65525 0.68697 0.46048 2.0471-0.13437 2.6154-0.56726 0.54198-1.8666 0.66341-2.5113 0.0277-2.5581-2.5225-4.8051-4.8092-7.2076-7.2137-2.464-2.4661-4.6649-4.6111-7.3919-7.3982z"/>
<path d="m-21.968 89.815c0.68991-0.70514 0.81328-2.146 0.22244-2.7638-0.61513-0.64319-2.1273-0.59065-2.8681 0.12063-2.7809 2.67-4.928 4.9322-7.3919 7.3982-2.4025 2.4046-4.8848 4.7785-7.2076 7.2138-0.65525 0.68697-0.46048 2.0471 0.13436 2.6154 0.56726 0.54198 1.8666 0.66341 2.5113 0.0277 2.5581-2.5225 4.8051-4.8092 7.2076-7.2137 2.464-2.4661 4.6649-4.6111 7.3919-7.3982z"/>
</g>
<g transform="matrix(-1.7283 5.0226 5.0226 1.7283 -87.624 869.85)" fill="#8062ff" stroke-width=".047721px">
<path d="m-39.023 89.815c-0.68991-0.70514-0.81328-2.146-0.22244-2.7638 0.61513-0.64319 2.1273-0.59065 2.8681 0.12063 2.7809 2.67 4.928 4.9322 7.3919 7.3982 2.4025 2.4046 4.8848 4.7785 7.2076 7.2138 0.65525 0.68697 0.46048 2.0471-0.13437 2.6154-0.56726 0.54198-1.8666 0.66341-2.5113 0.0277-2.5581-2.5225-4.8051-4.8092-7.2076-7.2137-2.464-2.4661-4.6649-4.6111-7.3919-7.3982z"/>
<path d="m-21.968 89.815c0.68991-0.70514 0.81328-2.146 0.22244-2.7638-0.61513-0.64319-2.1273-0.59065-2.8681 0.12063-2.7809 2.67-4.928 4.9322-7.3919 7.3982-2.4025 2.4046-4.8848 4.7785-7.2076 7.2138-0.65525 0.68697-0.46048 2.0471 0.13436 2.6154 0.56726 0.54198 1.8666 0.66341 2.5113 0.0277 2.5581-2.5225 4.8051-4.8092 7.2076-7.2137 2.464-2.4661 4.6649-4.6111 7.3919-7.3982z"/>
</g>
<g transform="matrix(-1.5861 5.9723 6.1235 1.6738 -147.95 612.16)" fill="#8062ff" stroke-width=".047721px">
<path d="m-39.023 89.815c-0.68991-0.70514-0.81328-2.146-0.22244-2.7638 0.61513-0.64319 2.1273-0.59065 2.8681 0.12063 2.7809 2.67 4.928 4.9322 7.3919 7.3982 2.4025 2.4046 4.8848 4.7785 7.2076 7.2138 0.65525 0.68697 0.46048 2.0471-0.13437 2.6154-0.56726 0.54198-1.8666 0.66341-2.5113 0.0277-2.5581-2.5225-4.8051-4.8092-7.2076-7.2137-2.464-2.4661-4.6649-4.6111-7.3919-7.3982z"/>
<path d="m-21.968 89.815c0.68991-0.70514 0.81328-2.146 0.22244-2.7638-0.61513-0.64319-2.1273-0.59065-2.8681 0.12063-2.7809 2.67-4.928 4.9322-7.3919 7.3982-2.4025 2.4046-4.8848 4.7785-7.2076 7.2138-0.65525 0.68697-0.46048 2.0471 0.13436 2.6154 0.56726 0.54198 1.8666 0.66341 2.5113 0.0277 2.5581-2.5225 4.8051-4.8092 7.2076-7.2137 2.464-2.4661 4.6649-4.6111 7.3919-7.3982z"/>
</g>
<g transform="matrix(-5.4483 2.1492 2.1492 5.4483 494.27 485.6)" fill="#8062ff" stroke-width=".047721px">
<path d="m-39.023 89.815c-0.68991-0.70514-0.81328-2.146-0.22244-2.7638 0.61513-0.64319 2.1273-0.59065 2.8681 0.12063 2.7809 2.67 4.928 4.9322 7.3919 7.3982 2.4025 2.4046 4.8848 4.7785 7.2076 7.2138 0.65525 0.68697 0.46048 2.0471-0.13437 2.6154-0.56726 0.54198-1.8666 0.66341-2.5113 0.0277-2.5581-2.5225-4.8051-4.8092-7.2076-7.2137-2.464-2.4661-4.6649-4.6111-7.3919-7.3982z"/>
<path d="m-21.968 89.815c0.68991-0.70514 0.81328-2.146 0.22244-2.7638-0.61513-0.64319-2.1273-0.59065-2.8681 0.12063-2.7809 2.67-4.928 4.9322-7.3919 7.3982-2.4025 2.4046-4.8848 4.7785-7.2076 7.2138-0.65525 0.68697-0.46048 2.0471 0.13436 2.6154 0.56726 0.54198 1.8666 0.66341 2.5113 0.0277 2.5581-2.5225 4.8051-4.8092 7.2076-7.2137 2.464-2.4661 4.6649-4.6111 7.3919-7.3982z"/>
</g>
<g transform="matrix(-2.9608 1.2622 1.2622 2.9608 48.788 854.34)" fill="#8062ff" stroke-width=".047721px">
<path d="m-46.88 88.729c-0.68991-0.70514-0.81328-2.146-0.22244-2.7638 0.61513-0.64319 2.1273-0.59065 2.8681 0.12063 2.7809 2.67 4.928 4.9322 7.3919 7.3982 2.4025 2.4046 4.8848 4.7785 7.2076 7.2138 0.65525 0.68697 0.46048 2.0471-0.13437 2.6154-0.56726 0.54198-1.8666 0.66341-2.5113 0.0277-2.5581-2.5225-4.8051-4.8092-7.2076-7.2137-2.464-2.4661-4.6649-4.6111-7.3919-7.3982z"/>
<path d="m-29.825 88.728c0.68991-0.70514 0.81328-2.146 0.22244-2.7638-0.61513-0.64319-2.1273-0.59065-2.8681 0.12063-2.7809 2.67-4.928 4.9322-7.3919 7.3982-2.4025 2.4046-4.8848 4.7785-7.2076 7.2138-0.65525 0.68697-0.46048 2.0471 0.13436 2.6154 0.56726 0.54198 1.8666 0.66341 2.5113 0.0277 2.5581-2.5225 4.8051-4.8092 7.2076-7.2138 2.464-2.4661 4.6649-4.6111 7.3919-7.3982z"/>
</g>
<g transform="matrix(-5.9303 -4.0658 -4.0658 5.9303 115.72 55.235)" fill="#8062ff" stroke-width=".047721px">
<path d="m-39.023 89.815c-0.68991-0.70514-0.81328-2.146-0.22244-2.7638 0.61513-0.64319 2.1273-0.59065 2.8681 0.12063 2.7809 2.67 4.928 4.9322 7.3919 7.3982 2.4025 2.4046 4.8848 4.7785 7.2076 7.2138 0.65525 0.68697 0.46048 2.0471-0.13437 2.6154-0.56726 0.54198-1.8666 0.66341-2.5113 0.0277-2.5581-2.5225-4.8051-4.8092-7.2076-7.2137-2.464-2.4661-4.6649-4.6111-7.3919-7.3982z"/>
<path d="m-21.968 89.815c0.68991-0.70514 0.81328-2.146 0.22244-2.7638-0.61513-0.64319-2.1273-0.59065-2.8681 0.12063-2.7809 2.67-4.928 4.9322-7.3919 7.3982-2.4025 2.4046-4.8848 4.7785-7.2076 7.2138-0.65525 0.68697-0.46048 2.0471 0.13436 2.6154 0.56726 0.54198 1.8666 0.66341 2.5113 0.0277 2.5581-2.5225 4.8051-4.8092 7.2076-7.2137 2.464-2.4661 4.6649-4.6111 7.3919-7.3982z"/>
</g>
<ellipse transform="scale(-1,1)" cx="-601.41" cy="363.74" rx="48.717" ry="48.717" fill="none" stroke-width="22.62"/>
<ellipse transform="scale(-1,1)" cx="-692.15" cy="762.04" rx="48.717" ry="48.717" fill="none" stroke-width="22.62"/>
<ellipse transform="scale(-1,1)" cx="-157.02" cy="225.83" rx="48.717" ry="48.717" fill="none" stroke-width="22.62"/>
<ellipse transform="scale(-1,1)" cx="-264.29" cy="22.243" rx="45.164" ry="45.164" fill="none" stroke-width="20.971"/>
<ellipse transform="scale(-1,1)" cx="-108.86" cy="943.85" rx="32.727" ry="32.727" fill="none" stroke-width="15.196"/>
<ellipse transform="scale(-1,1)" cx="-73.837" cy="593.6" rx="32.727" ry="32.727" fill="none" stroke-width="15.196"/>
<ellipse transform="scale(-1,1)" cx="-12.542" cy="1119" rx="43.387" ry="43.387" fill="none" stroke-width="20.146"/>
<ellipse transform="scale(-1,1)" cx="-538.9" cy="1107.7" rx="54.047" ry="54.047" fill="none" stroke-width="25.095"/>
<ellipse transform="scale(-1,1)" cx="-775.54" cy="538.53" rx="45.525" ry="45.525" fill="none" opacity="1" stroke-width="21.138"/>
<ellipse transform="scale(-1,1)" cx="-1159.6" cy="535.53" rx="38.22" ry="38.22" fill="none" opacity="1" stroke-width="17.746"/>
</g>
</svg>
