<?xml version="1.0" encoding="UTF-8"?>
<svg width="256mm" height="256mm" version="1.1" viewBox="0 0 256 256" xmlns="http://www.w3.org/2000/svg">
<g>
<path d="m105.34 244.97c-14.677-3.2592-21.883-5.8217-32.895-11.698-29.752-15.876-51.326-43.195-60.248-76.293-4.1878-15.536-4.1923-43.007-0.01061-58.576 6.0203-22.407 16.895-40.85 33.462-56.749 11.496-11.032 18.521-15.889 32.358-22.371 18.097-8.4777 27.545-10.44 50.262-10.44 23.137 0 32.568 2.031 51.405 11.071 25.713 12.339 44.917 31.67 56.939 57.317 8.586 18.316 10.545 27.692 10.545 50.461 0 16.204-0.48666 21.512-2.7179 29.65-11.683 42.609-44.588 75.288-86.874 86.281-15.332 3.9858-37.743 4.5642-52.227 1.348zm41.406-44.113c13.784-3.5891 23.414-9.2456 34.5-20.265 16.797-16.696 22.994-32.793 21.829-56.705-0.99891-20.499-7.5829-35.737-21.417-49.567-13.834-13.829-29.077-20.411-49.584-21.41-23.885-1.163-39.963 5.0145-56.795 21.822-15.431 15.408-22.167 31.43-22.167 52.725 0 21.521 6.7659 37.681 22.237 53.113 10.914 10.886 19.259 15.904 32.977 19.828 9.9962 2.8596 28.357 3.079 38.419 0.45894z" fill="#2a7fff" stroke="#323232" stroke-width="17.69"/>
</g>
<g>
<g transform="matrix(12.866 -.23566 .23643 12.864 108.3 -1013.5)" fill="#f55" stroke="#323232" stroke-width="1.374">
<path d="m-39.021 89.839c-0.68963-0.70984-0.81292-2.1603-0.22228-2.7822 0.61492-0.64751 2.1265-0.59467 2.867 0.12136 2.7798 2.6877 4.926 4.965 7.389 7.4475 2.4016 2.4206 4.8828 4.8103 7.2047 7.2618 0.65498 0.69155 0.46025 2.0608-0.13439 2.6329-0.56706 0.54562-1.8659 0.6679-2.5104 0.028-2.5571-2.5393-4.8031-4.8412-7.2047-7.2618-2.463-2.4825-4.6631-4.6418-7.389-7.4475z"/>
<path d="m-21.852 89.837c0.69438-0.70507 0.81851-2.1458 0.22381-2.7635-0.61915-0.64316-2.1411-0.59066-2.8867 0.12054-2.7989 2.6697-4.9599 4.9316-7.4398 7.3974-2.4181 2.4043-4.9164 4.7779-7.2543 7.213-0.65949 0.6869-0.46342 2.0469 0.13531 2.6152 0.57096 0.54195 1.8788 0.6634 2.5276 0.0278 2.5747-2.5223 4.8362-4.8086 7.2543-7.213 2.4799-2.4658 4.6952-4.6106 7.4398-7.3974z"/>
</g>
<path d="m-301.84 186.49 73.38 71.21" fill="#f55" stroke="#f55" stroke-width="30.829"/>
<path d="m249.57-190.73c-15.78-3.5027-23.528-6.2567-35.368-12.572-31.988-17.062-55.184-46.423-64.776-81.994-4.5026-16.697-4.5073-46.221-0.0112-62.952 6.4727-24.081 18.165-43.902 35.977-60.989 12.36-11.857 19.913-17.076 34.79-24.043 19.457-9.1112 29.615-11.22 54.039-11.22 24.876 0 35.015 2.1827 55.268 11.898 27.646 13.261 48.292 34.036 61.219 61.599 9.2313 19.684 11.338 29.761 11.338 54.232 0 17.414-0.52329 23.12-2.9223 31.865-12.562 45.792-47.939 80.914-93.403 92.728-16.484 4.2836-40.58 4.9052-56.152 1.4487zm44.518-47.409c14.82-3.8573 25.174-9.9364 37.093-21.779 18.06-17.944 24.722-35.244 23.47-60.942-1.074-22.031-8.1529-38.408-23.027-53.27-14.874-14.863-31.263-21.936-53.31-23.01-25.68-1.2499-42.966 5.3892-61.064 23.452-16.59 16.559-23.833 33.778-23.833 56.664 0 23.129 7.2744 40.496 23.909 57.081 11.735 11.7 20.706 17.092 35.456 21.31 10.747 3.0733 30.488 3.309 41.307 0.4932z" fill="#2a7fff"/>
<g transform="matrix(13.915 -.1386 .13947 13.912 217.31 -1475)" fill="#f55">
<path d="m-39.021 89.839c-0.68963-0.70984-0.81292-2.1603-0.22228-2.7822 0.61492-0.64751 2.1265-0.59467 2.867 0.12136 2.7798 2.6877 4.926 4.965 7.389 7.4475 2.4016 2.4206 4.8828 4.8103 7.2047 7.2618 0.65498 0.69155 0.46025 2.0608-0.13439 2.6329-0.56706 0.54562-1.8659 0.6679-2.5104 0.028-2.5571-2.5393-4.8031-4.8412-7.2047-7.2618-2.463-2.4825-4.6631-4.6418-7.389-7.4475z"/>
<path d="m-21.852 89.837c0.69438-0.70507 0.81851-2.1458 0.22381-2.7635-0.61915-0.64316-2.1411-0.59066-2.8867 0.12054-2.7989 2.6697-4.9599 4.9316-7.4398 7.3974-2.4181 2.4043-4.9164 4.7779-7.2543 7.213-0.65949 0.6869-0.46342 2.0469 0.13531 2.6152 0.57096 0.54195 1.8788 0.6634 2.5276 0.0278 2.5747-2.5223 4.8362-4.8086 7.2543-7.213 2.4799-2.4658 4.6952-4.6106 7.4398-7.3974z"/>
</g>
<path d="m-236.95-181.26 78.705 77.664" fill="#f55" stroke="#f55" stroke-width="33.338"/>
</g>
</svg>
